<mxfile host="app.diagrams.net" modified="2020-12-05T12:18:18.451Z" agent="5.0 (Windows NT 10.0; Win64; x64) AppleWebKit/537.36 (KHTML, like Gecko) Chrome/86.0.4240.198 Safari/537.36 OPR/72.0.3815.400" etag="UjBfBH1RvJCW2fZ0T6BX" version="13.10.4" type="github">
  <diagram id="BRMGR8BmxeOIohEPxRmn" name="Page-1">
    <mxGraphModel dx="1622" dy="764" grid="1" gridSize="10" guides="1" tooltips="1" connect="1" arrows="1" fold="1" page="1" pageScale="1" pageWidth="827" pageHeight="1169" math="0" shadow="0">
      <root>
        <mxCell id="0" />
        <mxCell id="1" parent="0" />
        <mxCell id="jFmtSgG8iddwXYUBro4z-32" value="Question" style="swimlane;fontStyle=0;align=center;verticalAlign=top;childLayout=stackLayout;horizontal=1;startSize=26;horizontalStack=0;resizeParent=1;resizeLast=0;collapsible=1;marginBottom=0;rounded=0;shadow=0;strokeWidth=1;" parent="1" vertex="1">
          <mxGeometry x="844" y="390" width="160" height="40" as="geometry">
            <mxRectangle x="230" y="140" width="160" height="26" as="alternateBounds" />
          </mxGeometry>
        </mxCell>
        <mxCell id="jFmtSgG8iddwXYUBro4z-33" value="" style="line;html=1;strokeWidth=1;align=left;verticalAlign=middle;spacingTop=-1;spacingLeft=3;spacingRight=3;rotatable=0;labelPosition=right;points=[];portConstraint=eastwest;" parent="jFmtSgG8iddwXYUBro4z-32" vertex="1">
          <mxGeometry y="26" width="160" height="8" as="geometry" />
        </mxCell>
        <mxCell id="jFmtSgG8iddwXYUBro4z-34" value="Reponse&#xa;" style="swimlane;fontStyle=0;align=center;verticalAlign=top;childLayout=stackLayout;horizontal=1;startSize=26;horizontalStack=0;resizeParent=1;resizeLast=0;collapsible=1;marginBottom=0;rounded=0;shadow=0;strokeWidth=1;" parent="1" vertex="1">
          <mxGeometry x="850" y="520" width="160" height="112" as="geometry">
            <mxRectangle x="130" y="380" width="160" height="26" as="alternateBounds" />
          </mxGeometry>
        </mxCell>
        <mxCell id="jFmtSgG8iddwXYUBro4z-35" value="+ date : Datetime" style="text;align=left;verticalAlign=top;spacingLeft=4;spacingRight=4;overflow=hidden;rotatable=0;points=[[0,0.5],[1,0.5]];portConstraint=eastwest;" parent="jFmtSgG8iddwXYUBro4z-34" vertex="1">
          <mxGeometry y="26" width="160" height="26" as="geometry" />
        </mxCell>
        <mxCell id="jFmtSgG8iddwXYUBro4z-36" value="+ nbPassgers : int" style="text;align=left;verticalAlign=top;spacingLeft=4;spacingRight=4;overflow=hidden;rotatable=0;points=[[0,0.5],[1,0.5]];portConstraint=eastwest;rounded=0;shadow=0;html=0;" parent="jFmtSgG8iddwXYUBro4z-34" vertex="1">
          <mxGeometry y="52" width="160" height="26" as="geometry" />
        </mxCell>
        <mxCell id="jFmtSgG8iddwXYUBro4z-37" value="+ commentaire : String" style="text;align=left;verticalAlign=top;spacingLeft=4;spacingRight=4;overflow=hidden;rotatable=0;points=[[0,0.5],[1,0.5]];portConstraint=eastwest;rounded=0;shadow=0;html=0;" parent="jFmtSgG8iddwXYUBro4z-34" vertex="1">
          <mxGeometry y="78" width="160" height="26" as="geometry" />
        </mxCell>
        <mxCell id="jFmtSgG8iddwXYUBro4z-38" value="" style="line;html=1;strokeWidth=1;align=left;verticalAlign=middle;spacingTop=-1;spacingLeft=3;spacingRight=3;rotatable=0;labelPosition=right;points=[];portConstraint=eastwest;" parent="jFmtSgG8iddwXYUBro4z-34" vertex="1">
          <mxGeometry y="104" width="160" height="8" as="geometry" />
        </mxCell>
        <mxCell id="jFmtSgG8iddwXYUBro4z-39" value="Option" style="swimlane;fontStyle=0;align=center;verticalAlign=top;childLayout=stackLayout;horizontal=1;startSize=26;horizontalStack=0;resizeParent=1;resizeLast=0;collapsible=1;marginBottom=0;rounded=0;shadow=0;strokeWidth=1;" parent="1" vertex="1">
          <mxGeometry x="620" y="350" width="160" height="90" as="geometry">
            <mxRectangle x="340" y="380" width="170" height="26" as="alternateBounds" />
          </mxGeometry>
        </mxCell>
        <mxCell id="jFmtSgG8iddwXYUBro4z-40" value="+noOption: int&#xa;" style="text;align=left;verticalAlign=top;spacingLeft=4;spacingRight=4;overflow=hidden;rotatable=0;points=[[0,0.5],[1,0.5]];portConstraint=eastwest;" parent="jFmtSgG8iddwXYUBro4z-39" vertex="1">
          <mxGeometry y="26" width="160" height="26" as="geometry" />
        </mxCell>
        <mxCell id="jFmtSgG8iddwXYUBro4z-41" value="+texteOption: String" style="text;align=left;verticalAlign=top;spacingLeft=4;spacingRight=4;overflow=hidden;rotatable=0;points=[[0,0.5],[1,0.5]];portConstraint=eastwest;" parent="jFmtSgG8iddwXYUBro4z-39" vertex="1">
          <mxGeometry y="52" width="160" height="26" as="geometry" />
        </mxCell>
        <mxCell id="jFmtSgG8iddwXYUBro4z-42" value="" style="line;html=1;strokeWidth=1;align=left;verticalAlign=middle;spacingTop=-1;spacingLeft=3;spacingRight=3;rotatable=0;labelPosition=right;points=[];portConstraint=eastwest;" parent="jFmtSgG8iddwXYUBro4z-39" vertex="1">
          <mxGeometry y="78" width="160" height="8" as="geometry" />
        </mxCell>
        <mxCell id="jFmtSgG8iddwXYUBro4z-43" value="&lt;interface&gt; &#xa;InformationGenerale" style="swimlane;fontStyle=3;align=center;verticalAlign=top;childLayout=stackLayout;horizontal=1;startSize=40;horizontalStack=0;resizeParent=1;resizeLast=0;collapsible=1;marginBottom=0;rounded=0;shadow=0;strokeWidth=1;" parent="1" vertex="1">
          <mxGeometry x="620" y="230" width="170" height="74" as="geometry">
            <mxRectangle x="130" y="380" width="160" height="26" as="alternateBounds" />
          </mxGeometry>
        </mxCell>
        <mxCell id="jFmtSgG8iddwXYUBro4z-44" value="" style="line;html=1;strokeWidth=1;align=left;verticalAlign=middle;spacingTop=-1;spacingLeft=3;spacingRight=3;rotatable=0;labelPosition=right;points=[];portConstraint=eastwest;" parent="jFmtSgG8iddwXYUBro4z-43" vertex="1">
          <mxGeometry y="40" width="170" height="8" as="geometry" />
        </mxCell>
        <mxCell id="jFmtSgG8iddwXYUBro4z-45" value="estUnQuestion(): boolean" style="text;align=left;verticalAlign=top;spacingLeft=4;spacingRight=4;overflow=hidden;rotatable=0;points=[[0,0.5],[1,0.5]];portConstraint=eastwest;" parent="jFmtSgG8iddwXYUBro4z-43" vertex="1">
          <mxGeometry y="48" width="170" height="26" as="geometry" />
        </mxCell>
        <mxCell id="jFmtSgG8iddwXYUBro4z-46" value="Categorie" style="swimlane;fontStyle=0;align=center;verticalAlign=top;childLayout=stackLayout;horizontal=1;startSize=26;horizontalStack=0;resizeParent=1;resizeLast=0;collapsible=1;marginBottom=0;rounded=0;shadow=0;strokeWidth=1;" parent="1" vertex="1">
          <mxGeometry x="844" y="230" width="160" height="60" as="geometry">
            <mxRectangle x="340" y="380" width="170" height="26" as="alternateBounds" />
          </mxGeometry>
        </mxCell>
        <mxCell id="jFmtSgG8iddwXYUBro4z-47" value="+nom: String&#xa;" style="text;align=left;verticalAlign=top;spacingLeft=4;spacingRight=4;overflow=hidden;rotatable=0;points=[[0,0.5],[1,0.5]];portConstraint=eastwest;" parent="jFmtSgG8iddwXYUBro4z-46" vertex="1">
          <mxGeometry y="26" width="160" height="26" as="geometry" />
        </mxCell>
        <mxCell id="jFmtSgG8iddwXYUBro4z-48" value="" style="line;html=1;strokeWidth=1;align=left;verticalAlign=middle;spacingTop=-1;spacingLeft=3;spacingRight=3;rotatable=0;labelPosition=right;points=[];portConstraint=eastwest;" parent="jFmtSgG8iddwXYUBro4z-46" vertex="1">
          <mxGeometry y="52" width="160" height="8" as="geometry" />
        </mxCell>
        <mxCell id="jFmtSgG8iddwXYUBro4z-49" value="Partie" style="swimlane;fontStyle=0;align=center;verticalAlign=top;childLayout=stackLayout;horizontal=1;startSize=26;horizontalStack=0;resizeParent=1;resizeLast=0;collapsible=1;marginBottom=0;rounded=0;shadow=0;strokeWidth=1;" parent="1" vertex="1">
          <mxGeometry x="1100" y="299" width="160" height="86" as="geometry">
            <mxRectangle x="340" y="380" width="170" height="26" as="alternateBounds" />
          </mxGeometry>
        </mxCell>
        <mxCell id="jFmtSgG8iddwXYUBro4z-50" value="+ nomJoueur: String&#xa;" style="text;align=left;verticalAlign=top;spacingLeft=4;spacingRight=4;overflow=hidden;rotatable=0;points=[[0,0.5],[1,0.5]];portConstraint=eastwest;" parent="jFmtSgG8iddwXYUBro4z-49" vertex="1">
          <mxGeometry y="26" width="160" height="26" as="geometry" />
        </mxCell>
        <mxCell id="jFmtSgG8iddwXYUBro4z-51" value="+ nbPoints: int&#xa;" style="text;align=left;verticalAlign=top;spacingLeft=4;spacingRight=4;overflow=hidden;rotatable=0;points=[[0,0.5],[1,0.5]];portConstraint=eastwest;" parent="jFmtSgG8iddwXYUBro4z-49" vertex="1">
          <mxGeometry y="52" width="160" height="26" as="geometry" />
        </mxCell>
        <mxCell id="jFmtSgG8iddwXYUBro4z-52" value="" style="line;html=1;strokeWidth=1;align=left;verticalAlign=middle;spacingTop=-1;spacingLeft=3;spacingRight=3;rotatable=0;labelPosition=right;points=[];portConstraint=eastwest;" parent="jFmtSgG8iddwXYUBro4z-49" vertex="1">
          <mxGeometry y="78" width="160" height="8" as="geometry" />
        </mxCell>
        <mxCell id="jFmtSgG8iddwXYUBro4z-53" value="" style="endArrow=none;dashed=1;endFill=0;endSize=12;html=1;exitX=0.503;exitY=1.119;exitDx=0;exitDy=0;exitPerimeter=0;entryX=0.54;entryY=-0.042;entryDx=0;entryDy=0;startArrow=block;startFill=0;entryPerimeter=0;" parent="1" source="jFmtSgG8iddwXYUBro4z-45" target="jFmtSgG8iddwXYUBro4z-39" edge="1">
          <mxGeometry width="160" relative="1" as="geometry">
            <mxPoint x="810" y="530" as="sourcePoint" />
            <mxPoint x="970" y="530" as="targetPoint" />
          </mxGeometry>
        </mxCell>
        <mxCell id="jFmtSgG8iddwXYUBro4z-54" value="" style="endArrow=none;endSize=16;endFill=0;html=1;exitX=1.017;exitY=-0.077;exitDx=0;exitDy=0;entryX=0;entryY=0.25;entryDx=0;entryDy=0;startArrow=block;startFill=0;exitPerimeter=0;" parent="1" source="jFmtSgG8iddwXYUBro4z-41" target="jFmtSgG8iddwXYUBro4z-32" edge="1">
          <mxGeometry width="160" relative="1" as="geometry">
            <mxPoint x="810" y="530" as="sourcePoint" />
            <mxPoint x="840" y="410" as="targetPoint" />
            <Array as="points" />
          </mxGeometry>
        </mxCell>
        <mxCell id="jFmtSgG8iddwXYUBro4z-55" value="" style="endArrow=none;endSize=16;endFill=0;html=1;exitX=0.5;exitY=1;exitDx=0;exitDy=0;entryX=0;entryY=0.5;entryDx=0;entryDy=0;startArrow=block;startFill=0;" parent="1" source="jFmtSgG8iddwXYUBro4z-39" target="jFmtSgG8iddwXYUBro4z-36" edge="1">
          <mxGeometry width="160" relative="1" as="geometry">
            <mxPoint x="810" y="530" as="sourcePoint" />
            <mxPoint x="970" y="530" as="targetPoint" />
            <Array as="points">
              <mxPoint x="700" y="585" />
            </Array>
          </mxGeometry>
        </mxCell>
        <mxCell id="jFmtSgG8iddwXYUBro4z-56" value="&lt;div&gt;n&lt;/div&gt;" style="text;html=1;align=center;verticalAlign=middle;resizable=0;points=[];autosize=1;" parent="1" vertex="1">
          <mxGeometry x="1004" y="385" width="20" height="20" as="geometry" />
        </mxCell>
        <mxCell id="jFmtSgG8iddwXYUBro4z-57" value="*" style="text;html=1;align=center;verticalAlign=middle;resizable=0;points=[];autosize=1;" parent="1" vertex="1">
          <mxGeometry x="890" y="370" width="20" height="20" as="geometry" />
        </mxCell>
        <mxCell id="jFmtSgG8iddwXYUBro4z-58" value="1" style="text;html=1;align=center;verticalAlign=middle;resizable=0;points=[];autosize=1;" parent="1" vertex="1">
          <mxGeometry x="970" y="500" width="20" height="20" as="geometry" />
        </mxCell>
        <mxCell id="jFmtSgG8iddwXYUBro4z-59" value="*" style="text;html=1;align=center;verticalAlign=middle;resizable=0;points=[];autosize=1;" parent="1" vertex="1">
          <mxGeometry x="970" y="430" width="20" height="20" as="geometry" />
        </mxCell>
        <mxCell id="jFmtSgG8iddwXYUBro4z-60" value="" style="endArrow=diamondThin;endFill=0;endSize=24;html=1;exitX=0.21;exitY=-0.018;exitDx=0;exitDy=0;exitPerimeter=0;entryX=0.25;entryY=1;entryDx=0;entryDy=0;" parent="1" source="jFmtSgG8iddwXYUBro4z-34" target="jFmtSgG8iddwXYUBro4z-32" edge="1">
          <mxGeometry width="160" relative="1" as="geometry">
            <mxPoint x="830" y="440" as="sourcePoint" />
            <mxPoint x="990" y="440" as="targetPoint" />
          </mxGeometry>
        </mxCell>
        <mxCell id="jFmtSgG8iddwXYUBro4z-61" value="propose" style="edgeLabel;html=1;align=center;verticalAlign=middle;resizable=0;points=[];" parent="jFmtSgG8iddwXYUBro4z-60" vertex="1" connectable="0">
          <mxGeometry x="-0.1385" y="-1" relative="1" as="geometry">
            <mxPoint as="offset" />
          </mxGeometry>
        </mxCell>
        <mxCell id="jFmtSgG8iddwXYUBro4z-62" value="*" style="text;html=1;align=center;verticalAlign=middle;resizable=0;points=[];autosize=1;" parent="1" vertex="1">
          <mxGeometry x="850" y="430" width="20" height="20" as="geometry" />
        </mxCell>
        <mxCell id="jFmtSgG8iddwXYUBro4z-63" value="4" style="text;html=1;align=center;verticalAlign=middle;resizable=0;points=[];autosize=1;" parent="1" vertex="1">
          <mxGeometry x="850" y="491" width="20" height="20" as="geometry" />
        </mxCell>
        <mxCell id="jFmtSgG8iddwXYUBro4z-64" value="1" style="endArrow=none;html=1;endSize=12;startArrow=diamondThin;startSize=14;startFill=1;edgeStyle=orthogonalEdgeStyle;align=left;verticalAlign=bottom;endFill=0;" parent="1" target="jFmtSgG8iddwXYUBro4z-32" edge="1">
          <mxGeometry x="-0.5411" y="12" relative="1" as="geometry">
            <mxPoint x="888" y="286" as="sourcePoint" />
            <mxPoint x="1050" y="330" as="targetPoint" />
            <Array as="points">
              <mxPoint x="888" y="360" />
              <mxPoint x="888" y="360" />
            </Array>
            <mxPoint as="offset" />
          </mxGeometry>
        </mxCell>
        <mxCell id="jFmtSgG8iddwXYUBro4z-65" value="&lt;div&gt;*&lt;/div&gt;" style="endArrow=none;html=1;endSize=12;startArrow=diamondThin;startSize=14;startFill=1;edgeStyle=orthogonalEdgeStyle;align=left;verticalAlign=bottom;exitX=1;exitY=0.5;exitDx=0;exitDy=0;endFill=0;entryX=-0.006;entryY=0.269;entryDx=0;entryDy=0;entryPerimeter=0;" parent="1" source="jFmtSgG8iddwXYUBro4z-32" target="jFmtSgG8iddwXYUBro4z-51" edge="1">
          <mxGeometry x="0.7512" y="-20" relative="1" as="geometry">
            <mxPoint x="1080" y="500.0039999999999" as="sourcePoint" />
            <mxPoint x="1080.0218181818182" y="603.8199999999999" as="targetPoint" />
            <Array as="points">
              <mxPoint x="1070" y="410" />
              <mxPoint x="1070" y="358" />
            </Array>
            <mxPoint as="offset" />
          </mxGeometry>
        </mxCell>
        <mxCell id="jFmtSgG8iddwXYUBro4z-66" value="" style="endArrow=diamondThin;endFill=0;endSize=24;html=1;" parent="1" edge="1">
          <mxGeometry width="160" relative="1" as="geometry">
            <mxPoint x="970" y="518" as="sourcePoint" />
            <mxPoint x="970" y="430" as="targetPoint" />
          </mxGeometry>
        </mxCell>
        <mxCell id="jFmtSgG8iddwXYUBro4z-67" value="&lt;div&gt;bonneReponse&lt;/div&gt;" style="edgeLabel;html=1;align=center;verticalAlign=middle;resizable=0;points=[];" parent="jFmtSgG8iddwXYUBro4z-66" vertex="1" connectable="0">
          <mxGeometry x="-0.1385" y="-1" relative="1" as="geometry">
            <mxPoint as="offset" />
          </mxGeometry>
        </mxCell>
        <mxCell id="jFmtSgG8iddwXYUBro4z-68" value="1" style="endArrow=none;html=1;endSize=12;startArrow=diamondThin;startSize=14;startFill=1;edgeStyle=orthogonalEdgeStyle;align=left;verticalAlign=bottom;endFill=0;exitX=1;exitY=0.5;exitDx=0;exitDy=0;entryX=-0.017;entryY=0.179;entryDx=0;entryDy=0;entryPerimeter=0;" parent="1" source="jFmtSgG8iddwXYUBro4z-47" target="jFmtSgG8iddwXYUBro4z-49" edge="1">
          <mxGeometry x="-0.7693" y="9" relative="1" as="geometry">
            <mxPoint x="888" y="286" as="sourcePoint" />
            <mxPoint x="888" y="390" as="targetPoint" />
            <Array as="points">
              <mxPoint x="1070" y="269" />
              <mxPoint x="1070" y="314" />
            </Array>
            <mxPoint as="offset" />
          </mxGeometry>
        </mxCell>
        <mxCell id="jFmtSgG8iddwXYUBro4z-69" value="*" style="text;html=1;align=center;verticalAlign=middle;resizable=0;points=[];autosize=1;" parent="1" vertex="1">
          <mxGeometry x="1080" y="290" width="20" height="20" as="geometry" />
        </mxCell>
        <mxCell id="jFmtSgG8iddwXYUBro4z-70" value="&lt;div&gt;Quizz&lt;/div&gt;" style="shape=umlFrame;whiteSpace=wrap;html=1;fillColor=none;" parent="1" vertex="1">
          <mxGeometry x="499" y="102" width="1101" height="578" as="geometry" />
        </mxCell>
        <mxCell id="jFmtSgG8iddwXYUBro4z-71" value="Thread&#xa;" style="swimlane;fontStyle=1;align=center;verticalAlign=top;childLayout=stackLayout;horizontal=1;startSize=26;horizontalStack=0;resizeParent=1;resizeParentMax=0;resizeLast=0;collapsible=1;marginBottom=0;" parent="1" vertex="1">
          <mxGeometry x="2068" y="150" width="160" height="34" as="geometry" />
        </mxCell>
        <mxCell id="jFmtSgG8iddwXYUBro4z-73" value="" style="line;strokeWidth=1;fillColor=none;align=left;verticalAlign=middle;spacingTop=-1;spacingLeft=3;spacingRight=3;rotatable=0;labelPosition=right;points=[];portConstraint=eastwest;" parent="jFmtSgG8iddwXYUBro4z-71" vertex="1">
          <mxGeometry y="26" width="160" height="8" as="geometry" />
        </mxCell>
        <mxCell id="jFmtSgG8iddwXYUBro4z-75" value="Serveur" style="swimlane;fontStyle=1;align=center;verticalAlign=top;childLayout=stackLayout;horizontal=1;startSize=26;horizontalStack=0;resizeParent=1;resizeParentMax=0;resizeLast=0;collapsible=1;marginBottom=0;" parent="1" vertex="1">
          <mxGeometry x="1800" y="441.5" width="160" height="34" as="geometry" />
        </mxCell>
        <mxCell id="jFmtSgG8iddwXYUBro4z-77" value="" style="line;strokeWidth=1;fillColor=none;align=left;verticalAlign=middle;spacingTop=-1;spacingLeft=3;spacingRight=3;rotatable=0;labelPosition=right;points=[];portConstraint=eastwest;" parent="jFmtSgG8iddwXYUBro4z-75" vertex="1">
          <mxGeometry y="26" width="160" height="8" as="geometry" />
        </mxCell>
        <mxCell id="jFmtSgG8iddwXYUBro4z-79" value="ServeurSocket" style="swimlane;fontStyle=1;align=center;verticalAlign=top;childLayout=stackLayout;horizontal=1;startSize=26;horizontalStack=0;resizeParent=1;resizeParentMax=0;resizeLast=0;collapsible=1;marginBottom=0;" parent="1" vertex="1">
          <mxGeometry x="1800" y="540" width="160" height="34" as="geometry" />
        </mxCell>
        <mxCell id="jFmtSgG8iddwXYUBro4z-80" value="" style="line;strokeWidth=1;fillColor=none;align=left;verticalAlign=middle;spacingTop=-1;spacingLeft=3;spacingRight=3;rotatable=0;labelPosition=right;points=[];portConstraint=eastwest;" parent="jFmtSgG8iddwXYUBro4z-79" vertex="1">
          <mxGeometry y="26" width="160" height="8" as="geometry" />
        </mxCell>
        <mxCell id="jFmtSgG8iddwXYUBro4z-85" value="Connexion" style="swimlane;fontStyle=1;align=center;verticalAlign=top;childLayout=stackLayout;horizontal=1;startSize=26;horizontalStack=0;resizeParent=1;resizeParentMax=0;resizeLast=0;collapsible=1;marginBottom=0;" parent="1" vertex="1">
          <mxGeometry x="2370" y="441.5" width="160" height="34" as="geometry" />
        </mxCell>
        <mxCell id="jFmtSgG8iddwXYUBro4z-86" value="" style="line;strokeWidth=1;fillColor=none;align=left;verticalAlign=middle;spacingTop=-1;spacingLeft=3;spacingRight=3;rotatable=0;labelPosition=right;points=[];portConstraint=eastwest;" parent="jFmtSgG8iddwXYUBro4z-85" vertex="1">
          <mxGeometry y="26" width="160" height="8" as="geometry" />
        </mxCell>
        <mxCell id="jFmtSgG8iddwXYUBro4z-87" value="Socket" style="swimlane;fontStyle=1;align=center;verticalAlign=top;childLayout=stackLayout;horizontal=1;startSize=26;horizontalStack=0;resizeParent=1;resizeParentMax=0;resizeLast=0;collapsible=1;marginBottom=0;" parent="1" vertex="1">
          <mxGeometry x="2600" y="423" width="160" height="34" as="geometry" />
        </mxCell>
        <mxCell id="jFmtSgG8iddwXYUBro4z-88" value="" style="line;strokeWidth=1;fillColor=none;align=left;verticalAlign=middle;spacingTop=-1;spacingLeft=3;spacingRight=3;rotatable=0;labelPosition=right;points=[];portConstraint=eastwest;" parent="jFmtSgG8iddwXYUBro4z-87" vertex="1">
          <mxGeometry y="26" width="160" height="8" as="geometry" />
        </mxCell>
        <mxCell id="jFmtSgG8iddwXYUBro4z-89" value="ObjectInputStream" style="swimlane;fontStyle=1;align=center;verticalAlign=top;childLayout=stackLayout;horizontal=1;startSize=26;horizontalStack=0;resizeParent=1;resizeParentMax=0;resizeLast=0;collapsible=1;marginBottom=0;" parent="1" vertex="1">
          <mxGeometry x="2600" y="457" width="160" height="34" as="geometry" />
        </mxCell>
        <mxCell id="jFmtSgG8iddwXYUBro4z-90" value="" style="line;strokeWidth=1;fillColor=none;align=left;verticalAlign=middle;spacingTop=-1;spacingLeft=3;spacingRight=3;rotatable=0;labelPosition=right;points=[];portConstraint=eastwest;" parent="jFmtSgG8iddwXYUBro4z-89" vertex="1">
          <mxGeometry y="26" width="160" height="8" as="geometry" />
        </mxCell>
        <mxCell id="jFmtSgG8iddwXYUBro4z-91" value="ObjectOutputStream" style="swimlane;fontStyle=1;align=center;verticalAlign=top;childLayout=stackLayout;horizontal=1;startSize=26;horizontalStack=0;resizeParent=1;resizeParentMax=0;resizeLast=0;collapsible=1;marginBottom=0;" parent="1" vertex="1">
          <mxGeometry x="2600" y="491" width="160" height="34" as="geometry" />
        </mxCell>
        <mxCell id="jFmtSgG8iddwXYUBro4z-92" value="" style="line;strokeWidth=1;fillColor=none;align=left;verticalAlign=middle;spacingTop=-1;spacingLeft=3;spacingRight=3;rotatable=0;labelPosition=right;points=[];portConstraint=eastwest;" parent="jFmtSgG8iddwXYUBro4z-91" vertex="1">
          <mxGeometry y="26" width="160" height="8" as="geometry" />
        </mxCell>
        <mxCell id="jFmtSgG8iddwXYUBro4z-95" value="" style="endArrow=diamondThin;endFill=1;endSize=24;html=1;entryX=0.5;entryY=1;entryDx=0;entryDy=0;exitX=0.5;exitY=0;exitDx=0;exitDy=0;" parent="1" source="jFmtSgG8iddwXYUBro4z-79" target="jFmtSgG8iddwXYUBro4z-75" edge="1">
          <mxGeometry width="160" relative="1" as="geometry">
            <mxPoint x="1630" y="469" as="sourcePoint" />
            <mxPoint x="1790" y="469" as="targetPoint" />
          </mxGeometry>
        </mxCell>
        <mxCell id="jFmtSgG8iddwXYUBro4z-96" value="" style="endArrow=diamondThin;endFill=1;endSize=24;html=1;exitX=0;exitY=0.5;exitDx=0;exitDy=0;" parent="1" source="jFmtSgG8iddwXYUBro4z-91" edge="1">
          <mxGeometry width="160" relative="1" as="geometry">
            <mxPoint x="2571" y="475.5" as="sourcePoint" />
            <mxPoint x="2480" y="476" as="targetPoint" />
          </mxGeometry>
        </mxCell>
        <mxCell id="jFmtSgG8iddwXYUBro4z-97" value="" style="endArrow=diamondThin;endFill=1;endSize=24;html=1;exitX=0;exitY=0.5;exitDx=0;exitDy=0;entryX=1;entryY=1;entryDx=0;entryDy=0;" parent="1" source="jFmtSgG8iddwXYUBro4z-89" target="jFmtSgG8iddwXYUBro4z-85" edge="1">
          <mxGeometry width="160" relative="1" as="geometry">
            <mxPoint x="2680" y="305.32" as="sourcePoint" />
            <mxPoint x="2840" y="305.32" as="targetPoint" />
          </mxGeometry>
        </mxCell>
        <mxCell id="jFmtSgG8iddwXYUBro4z-98" value="" style="endArrow=diamondThin;endFill=1;endSize=24;html=1;exitX=0;exitY=0.5;exitDx=0;exitDy=0;" parent="1" source="jFmtSgG8iddwXYUBro4z-87" edge="1">
          <mxGeometry width="160" relative="1" as="geometry">
            <mxPoint x="2490" y="236.5" as="sourcePoint" />
            <mxPoint x="2530" y="442" as="targetPoint" />
          </mxGeometry>
        </mxCell>
        <mxCell id="jFmtSgG8iddwXYUBro4z-105" value="model.Joueur" style="swimlane;fontStyle=1;align=center;verticalAlign=top;childLayout=stackLayout;horizontal=1;startSize=26;horizontalStack=0;resizeParent=1;resizeParentMax=0;resizeLast=0;collapsible=1;marginBottom=0;" parent="1" vertex="1">
          <mxGeometry x="2600" y="389" width="160" height="34" as="geometry" />
        </mxCell>
        <mxCell id="jFmtSgG8iddwXYUBro4z-106" value="" style="line;strokeWidth=1;fillColor=none;align=left;verticalAlign=middle;spacingTop=-1;spacingLeft=3;spacingRight=3;rotatable=0;labelPosition=right;points=[];portConstraint=eastwest;" parent="jFmtSgG8iddwXYUBro4z-105" vertex="1">
          <mxGeometry y="26" width="160" height="8" as="geometry" />
        </mxCell>
        <mxCell id="jFmtSgG8iddwXYUBro4z-109" value="" style="endArrow=diamondThin;endFill=1;endSize=24;html=1;exitX=0;exitY=0.5;exitDx=0;exitDy=0;entryX=0.706;entryY=-0.005;entryDx=0;entryDy=0;entryPerimeter=0;" parent="1" source="jFmtSgG8iddwXYUBro4z-105" target="jFmtSgG8iddwXYUBro4z-85" edge="1">
          <mxGeometry width="160" relative="1" as="geometry">
            <mxPoint x="2560" y="346.5" as="sourcePoint" />
            <mxPoint x="2530" y="386.5" as="targetPoint" />
          </mxGeometry>
        </mxCell>
        <mxCell id="jFmtSgG8iddwXYUBro4z-114" value="Joueur" style="swimlane;fontStyle=1;align=center;verticalAlign=top;childLayout=stackLayout;horizontal=1;startSize=26;horizontalStack=0;resizeParent=1;resizeParentMax=0;resizeLast=0;collapsible=1;marginBottom=0;" parent="1" vertex="1">
          <mxGeometry x="1400" y="290" width="160" height="78" as="geometry" />
        </mxCell>
        <mxCell id="jFmtSgG8iddwXYUBro4z-115" value="nom : String&#xa;pseudo : String" style="text;strokeColor=none;fillColor=none;align=left;verticalAlign=top;spacingLeft=4;spacingRight=4;overflow=hidden;rotatable=0;points=[[0,0.5],[1,0.5]];portConstraint=eastwest;" parent="jFmtSgG8iddwXYUBro4z-114" vertex="1">
          <mxGeometry y="26" width="160" height="44" as="geometry" />
        </mxCell>
        <mxCell id="jFmtSgG8iddwXYUBro4z-116" value="" style="line;strokeWidth=1;fillColor=none;align=left;verticalAlign=middle;spacingTop=-1;spacingLeft=3;spacingRight=3;rotatable=0;labelPosition=right;points=[];portConstraint=eastwest;" parent="jFmtSgG8iddwXYUBro4z-114" vertex="1">
          <mxGeometry y="70" width="160" height="8" as="geometry" />
        </mxCell>
        <mxCell id="jFmtSgG8iddwXYUBro4z-124" value="" style="endArrow=diamondThin;endFill=1;endSize=24;html=1;entryX=0;entryY=0.5;entryDx=0;entryDy=0;exitX=1;exitY=0.5;exitDx=0;exitDy=0;" parent="1" source="jFmtSgG8iddwXYUBro4z-50" target="jFmtSgG8iddwXYUBro4z-115" edge="1">
          <mxGeometry width="160" relative="1" as="geometry">
            <mxPoint x="1300" y="380" as="sourcePoint" />
            <mxPoint x="1270" y="470" as="targetPoint" />
          </mxGeometry>
        </mxCell>
        <mxCell id="jFmtSgG8iddwXYUBro4z-125" value="*" style="text;html=1;align=center;verticalAlign=middle;resizable=0;points=[];autosize=1;" parent="1" vertex="1">
          <mxGeometry x="1270" y="340" width="20" height="20" as="geometry" />
        </mxCell>
        <mxCell id="jFmtSgG8iddwXYUBro4z-126" value="1" style="text;html=1;align=center;verticalAlign=middle;resizable=0;points=[];autosize=1;" parent="1" vertex="1">
          <mxGeometry x="1370" y="350" width="20" height="20" as="geometry" />
        </mxCell>
        <mxCell id="jFmtSgG8iddwXYUBro4z-127" value="Score" style="swimlane;fontStyle=1;align=center;verticalAlign=top;childLayout=stackLayout;horizontal=1;startSize=26;horizontalStack=0;resizeParent=1;resizeParentMax=0;resizeLast=0;collapsible=1;marginBottom=0;" parent="1" vertex="1">
          <mxGeometry x="1250" y="190" width="160" height="60" as="geometry" />
        </mxCell>
        <mxCell id="jFmtSgG8iddwXYUBro4z-128" value="score : int" style="text;strokeColor=none;fillColor=none;align=left;verticalAlign=top;spacingLeft=4;spacingRight=4;overflow=hidden;rotatable=0;points=[[0,0.5],[1,0.5]];portConstraint=eastwest;" parent="jFmtSgG8iddwXYUBro4z-127" vertex="1">
          <mxGeometry y="26" width="160" height="26" as="geometry" />
        </mxCell>
        <mxCell id="jFmtSgG8iddwXYUBro4z-129" value="" style="line;strokeWidth=1;fillColor=none;align=left;verticalAlign=middle;spacingTop=-1;spacingLeft=3;spacingRight=3;rotatable=0;labelPosition=right;points=[];portConstraint=eastwest;" parent="jFmtSgG8iddwXYUBro4z-127" vertex="1">
          <mxGeometry y="52" width="160" height="8" as="geometry" />
        </mxCell>
        <mxCell id="jFmtSgG8iddwXYUBro4z-132" value="" style="endArrow=diamondThin;endFill=1;endSize=24;html=1;exitX=1;exitY=0.5;exitDx=0;exitDy=0;entryX=0.5;entryY=0;entryDx=0;entryDy=0;" parent="1" source="jFmtSgG8iddwXYUBro4z-128" target="jFmtSgG8iddwXYUBro4z-114" edge="1">
          <mxGeometry width="160" relative="1" as="geometry">
            <mxPoint x="1410" y="210" as="sourcePoint" />
            <mxPoint x="1570" y="210" as="targetPoint" />
          </mxGeometry>
        </mxCell>
        <mxCell id="jFmtSgG8iddwXYUBro4z-133" value="" style="endArrow=diamondThin;endFill=1;endSize=24;html=1;exitX=0;exitY=0.5;exitDx=0;exitDy=0;entryX=0.5;entryY=0;entryDx=0;entryDy=0;" parent="1" source="jFmtSgG8iddwXYUBro4z-128" target="jFmtSgG8iddwXYUBro4z-49" edge="1">
          <mxGeometry width="160" relative="1" as="geometry">
            <mxPoint x="1050" y="190" as="sourcePoint" />
            <mxPoint x="1210" y="190" as="targetPoint" />
          </mxGeometry>
        </mxCell>
        <mxCell id="jFmtSgG8iddwXYUBro4z-134" value="*" style="text;html=1;align=center;verticalAlign=middle;resizable=0;points=[];autosize=1;" parent="1" vertex="1">
          <mxGeometry x="1420" y="220" width="20" height="20" as="geometry" />
        </mxCell>
        <mxCell id="jFmtSgG8iddwXYUBro4z-135" value="1" style="text;html=1;align=center;verticalAlign=middle;resizable=0;points=[];autosize=1;" parent="1" vertex="1">
          <mxGeometry x="1470" y="260" width="20" height="20" as="geometry" />
        </mxCell>
        <mxCell id="jFmtSgG8iddwXYUBro4z-136" value="1" style="text;html=1;align=center;verticalAlign=middle;resizable=0;points=[];autosize=1;" parent="1" vertex="1">
          <mxGeometry x="1160" y="280" width="20" height="20" as="geometry" />
        </mxCell>
        <mxCell id="jFmtSgG8iddwXYUBro4z-137" value="*" style="text;html=1;align=center;verticalAlign=middle;resizable=0;points=[];autosize=1;" parent="1" vertex="1">
          <mxGeometry x="1220" y="220" width="20" height="20" as="geometry" />
        </mxCell>
        <mxCell id="jFmtSgG8iddwXYUBro4z-138" value="Loby" style="swimlane;fontStyle=1;align=center;verticalAlign=top;childLayout=stackLayout;horizontal=1;startSize=26;horizontalStack=0;resizeParent=1;resizeParentMax=0;resizeLast=0;collapsible=1;marginBottom=0;" parent="1" vertex="1">
          <mxGeometry x="2040" y="441.5" width="160" height="34" as="geometry" />
        </mxCell>
        <mxCell id="jFmtSgG8iddwXYUBro4z-140" value="" style="line;strokeWidth=1;fillColor=none;align=left;verticalAlign=middle;spacingTop=-1;spacingLeft=3;spacingRight=3;rotatable=0;labelPosition=right;points=[];portConstraint=eastwest;" parent="jFmtSgG8iddwXYUBro4z-138" vertex="1">
          <mxGeometry y="26" width="160" height="8" as="geometry" />
        </mxCell>
        <mxCell id="jFmtSgG8iddwXYUBro4z-142" value="" style="endArrow=diamondThin;endFill=1;endSize=24;html=1;exitX=0;exitY=0.5;exitDx=0;exitDy=0;entryX=1;entryY=0.5;entryDx=0;entryDy=0;" parent="1" source="jFmtSgG8iddwXYUBro4z-138" target="jFmtSgG8iddwXYUBro4z-75" edge="1">
          <mxGeometry width="160" relative="1" as="geometry">
            <mxPoint x="2170" y="500" as="sourcePoint" />
            <mxPoint x="2330" y="500" as="targetPoint" />
          </mxGeometry>
        </mxCell>
        <mxCell id="jFmtSgG8iddwXYUBro4z-143" value="" style="endArrow=diamondThin;endFill=1;endSize=24;html=1;exitX=0;exitY=0.5;exitDx=0;exitDy=0;entryX=1;entryY=0.5;entryDx=0;entryDy=0;" parent="1" source="jFmtSgG8iddwXYUBro4z-85" target="jFmtSgG8iddwXYUBro4z-138" edge="1">
          <mxGeometry width="160" relative="1" as="geometry">
            <mxPoint x="2110" y="540" as="sourcePoint" />
            <mxPoint x="2150" y="350" as="targetPoint" />
          </mxGeometry>
        </mxCell>
        <mxCell id="jFmtSgG8iddwXYUBro4z-169" value="Room" style="swimlane;fontStyle=1;align=center;verticalAlign=top;childLayout=stackLayout;horizontal=1;startSize=26;horizontalStack=0;resizeParent=1;resizeParentMax=0;resizeLast=0;collapsible=1;marginBottom=0;" parent="1" vertex="1">
          <mxGeometry x="2180" y="340" width="160" height="34" as="geometry" />
        </mxCell>
        <mxCell id="jFmtSgG8iddwXYUBro4z-171" value="" style="line;strokeWidth=1;fillColor=none;align=left;verticalAlign=middle;spacingTop=-1;spacingLeft=3;spacingRight=3;rotatable=0;labelPosition=right;points=[];portConstraint=eastwest;" parent="jFmtSgG8iddwXYUBro4z-169" vertex="1">
          <mxGeometry y="26" width="160" height="8" as="geometry" />
        </mxCell>
        <mxCell id="jFmtSgG8iddwXYUBro4z-175" value="" style="endArrow=diamondThin;endFill=1;endSize=24;html=1;exitX=0.5;exitY=0;exitDx=0;exitDy=0;entryX=1;entryY=0.5;entryDx=0;entryDy=0;" parent="1" source="jFmtSgG8iddwXYUBro4z-85" target="jFmtSgG8iddwXYUBro4z-169" edge="1">
          <mxGeometry width="160" relative="1" as="geometry">
            <mxPoint x="2350" y="560" as="sourcePoint" />
            <mxPoint x="2510" y="560" as="targetPoint" />
          </mxGeometry>
        </mxCell>
        <mxCell id="jFmtSgG8iddwXYUBro4z-177" value="" style="endArrow=diamondThin;endFill=1;endSize=24;html=1;entryX=0;entryY=0.5;entryDx=0;entryDy=0;" parent="1" target="jFmtSgG8iddwXYUBro4z-169" edge="1">
          <mxGeometry width="160" relative="1" as="geometry">
            <mxPoint x="2120" y="440" as="sourcePoint" />
            <mxPoint x="2240" y="540" as="targetPoint" />
            <Array as="points">
              <mxPoint x="2120" y="357" />
            </Array>
          </mxGeometry>
        </mxCell>
        <mxCell id="jFmtSgG8iddwXYUBro4z-179" value="" style="endArrow=block;endSize=16;endFill=0;html=1;exitX=0.5;exitY=0;exitDx=0;exitDy=0;entryX=0.061;entryY=0.875;entryDx=0;entryDy=0;entryPerimeter=0;" parent="1" source="jFmtSgG8iddwXYUBro4z-75" target="jFmtSgG8iddwXYUBro4z-73" edge="1">
          <mxGeometry width="160" relative="1" as="geometry">
            <mxPoint x="1880" y="238.82" as="sourcePoint" />
            <mxPoint x="2040" y="238.82" as="targetPoint" />
          </mxGeometry>
        </mxCell>
        <mxCell id="jFmtSgG8iddwXYUBro4z-181" value="" style="endArrow=block;endSize=16;endFill=0;html=1;exitX=0.25;exitY=0;exitDx=0;exitDy=0;entryX=0.5;entryY=1;entryDx=0;entryDy=0;" parent="1" source="jFmtSgG8iddwXYUBro4z-138" target="jFmtSgG8iddwXYUBro4z-71" edge="1">
          <mxGeometry width="160" relative="1" as="geometry">
            <mxPoint x="2010" y="432.68" as="sourcePoint" />
            <mxPoint x="2116" y="200" as="targetPoint" />
          </mxGeometry>
        </mxCell>
        <mxCell id="jFmtSgG8iddwXYUBro4z-182" value="" style="endArrow=block;endSize=16;endFill=0;html=1;entryX=0.75;entryY=1;entryDx=0;entryDy=0;" parent="1" target="jFmtSgG8iddwXYUBro4z-71" edge="1">
          <mxGeometry width="160" relative="1" as="geometry">
            <mxPoint x="2260" y="340" as="sourcePoint" />
            <mxPoint x="2420" y="137.31999999999994" as="targetPoint" />
          </mxGeometry>
        </mxCell>
        <mxCell id="jFmtSgG8iddwXYUBro4z-183" value="" style="endArrow=block;endSize=16;endFill=0;html=1;exitX=0.5;exitY=0;exitDx=0;exitDy=0;entryX=1;entryY=1;entryDx=0;entryDy=0;" parent="1" source="jFmtSgG8iddwXYUBro4z-85" target="jFmtSgG8iddwXYUBro4z-71" edge="1">
          <mxGeometry width="160" relative="1" as="geometry">
            <mxPoint x="2430" y="374" as="sourcePoint" />
            <mxPoint x="2590" y="171.31999999999994" as="targetPoint" />
          </mxGeometry>
        </mxCell>
        <mxCell id="jFmtSgG8iddwXYUBro4z-185" value="&lt;div&gt;Serveur&lt;/div&gt;" style="shape=umlFrame;whiteSpace=wrap;html=1;fillColor=none;" parent="1" vertex="1">
          <mxGeometry x="1719.5" y="120" width="1081" height="560" as="geometry" />
        </mxCell>
        <mxCell id="E8JkrkgCadUgXfBp5r76-1" value="1" style="text;html=1;align=center;verticalAlign=middle;resizable=0;points=[];autosize=1;" parent="1" vertex="1">
          <mxGeometry x="1890" y="475.5" width="20" height="20" as="geometry" />
        </mxCell>
        <mxCell id="E8JkrkgCadUgXfBp5r76-2" value="1" style="text;html=1;align=center;verticalAlign=middle;resizable=0;points=[];autosize=1;" parent="1" vertex="1">
          <mxGeometry x="1880" y="520" width="20" height="20" as="geometry" />
        </mxCell>
        <mxCell id="E8JkrkgCadUgXfBp5r76-3" value="1" style="text;html=1;align=center;verticalAlign=middle;resizable=0;points=[];autosize=1;" parent="1" vertex="1">
          <mxGeometry x="1970" y="430" width="20" height="20" as="geometry" />
        </mxCell>
        <mxCell id="E8JkrkgCadUgXfBp5r76-4" value="1" style="text;html=1;align=center;verticalAlign=middle;resizable=0;points=[];autosize=1;" parent="1" vertex="1">
          <mxGeometry x="2010" y="437" width="20" height="20" as="geometry" />
        </mxCell>
        <mxCell id="E8JkrkgCadUgXfBp5r76-5" value="1" style="text;html=1;align=center;verticalAlign=middle;resizable=0;points=[];autosize=1;" parent="1" vertex="1">
          <mxGeometry x="2100" y="420" width="20" height="20" as="geometry" />
        </mxCell>
        <mxCell id="E8JkrkgCadUgXfBp5r76-6" value="1" style="text;html=1;align=center;verticalAlign=middle;resizable=0;points=[];autosize=1;" parent="1" vertex="1">
          <mxGeometry x="2150" y="320" width="20" height="20" as="geometry" />
        </mxCell>
        <mxCell id="E8JkrkgCadUgXfBp5r76-7" value="1" style="text;html=1;align=center;verticalAlign=middle;resizable=0;points=[];autosize=1;" parent="1" vertex="1">
          <mxGeometry x="2200" y="470" width="20" height="20" as="geometry" />
        </mxCell>
        <mxCell id="E8JkrkgCadUgXfBp5r76-8" value="1" style="text;html=1;align=center;verticalAlign=middle;resizable=0;points=[];autosize=1;" parent="1" vertex="1">
          <mxGeometry x="2330" y="380" width="20" height="20" as="geometry" />
        </mxCell>
        <mxCell id="E8JkrkgCadUgXfBp5r76-9" value="*" style="text;html=1;align=center;verticalAlign=middle;resizable=0;points=[];autosize=1;" parent="1" vertex="1">
          <mxGeometry x="2410" y="421.5" width="20" height="20" as="geometry" />
        </mxCell>
        <mxCell id="E8JkrkgCadUgXfBp5r76-10" value="*" style="text;html=1;align=center;verticalAlign=middle;resizable=0;points=[];autosize=1;" parent="1" vertex="1">
          <mxGeometry x="2350" y="460" width="20" height="20" as="geometry" />
        </mxCell>
        <mxCell id="E8JkrkgCadUgXfBp5r76-11" value="1" style="text;html=1;align=center;verticalAlign=middle;resizable=0;points=[];autosize=1;" parent="1" vertex="1">
          <mxGeometry x="2480" y="410" width="20" height="20" as="geometry" />
        </mxCell>
        <mxCell id="E8JkrkgCadUgXfBp5r76-12" value="1" style="text;html=1;align=center;verticalAlign=middle;resizable=0;points=[];autosize=1;" parent="1" vertex="1">
          <mxGeometry x="2580" y="390" width="20" height="20" as="geometry" />
        </mxCell>
        <mxCell id="E8JkrkgCadUgXfBp5r76-16" value="1" style="text;html=1;align=center;verticalAlign=middle;resizable=0;points=[];autosize=1;" parent="1" vertex="1">
          <mxGeometry x="2550" y="420" width="20" height="20" as="geometry" />
        </mxCell>
        <mxCell id="E8JkrkgCadUgXfBp5r76-19" value="1" style="text;html=1;align=center;verticalAlign=middle;resizable=0;points=[];autosize=1;" parent="1" vertex="1">
          <mxGeometry x="2580" y="420" width="20" height="20" as="geometry" />
        </mxCell>
        <mxCell id="E8JkrkgCadUgXfBp5r76-20" value="1" style="text;html=1;align=center;verticalAlign=middle;resizable=0;points=[];autosize=1;" parent="1" vertex="1">
          <mxGeometry x="2550" y="450" width="20" height="20" as="geometry" />
        </mxCell>
        <mxCell id="E8JkrkgCadUgXfBp5r76-21" value="1" style="text;html=1;align=center;verticalAlign=middle;resizable=0;points=[];autosize=1;" parent="1" vertex="1">
          <mxGeometry x="2580" y="450" width="20" height="20" as="geometry" />
        </mxCell>
        <mxCell id="E8JkrkgCadUgXfBp5r76-22" value="1" style="text;html=1;align=center;verticalAlign=middle;resizable=0;points=[];autosize=1;" parent="1" vertex="1">
          <mxGeometry x="2490" y="480" width="20" height="20" as="geometry" />
        </mxCell>
        <mxCell id="E8JkrkgCadUgXfBp5r76-23" value="1" style="text;html=1;align=center;verticalAlign=middle;resizable=0;points=[];autosize=1;" parent="1" vertex="1">
          <mxGeometry x="2570" y="510" width="20" height="20" as="geometry" />
        </mxCell>
        <mxCell id="E8JkrkgCadUgXfBp5r76-24" value="ApplicationClient" style="swimlane;fontStyle=1;align=center;verticalAlign=top;childLayout=stackLayout;horizontal=1;startSize=26;horizontalStack=0;resizeParent=1;resizeParentMax=0;resizeLast=0;collapsible=1;marginBottom=0;" parent="1" vertex="1">
          <mxGeometry x="1000" y="820" width="160" height="34" as="geometry" />
        </mxCell>
        <mxCell id="E8JkrkgCadUgXfBp5r76-26" value="" style="line;strokeWidth=1;fillColor=none;align=left;verticalAlign=middle;spacingTop=-1;spacingLeft=3;spacingRight=3;rotatable=0;labelPosition=right;points=[];portConstraint=eastwest;" parent="E8JkrkgCadUgXfBp5r76-24" vertex="1">
          <mxGeometry y="26" width="160" height="8" as="geometry" />
        </mxCell>
        <mxCell id="E8JkrkgCadUgXfBp5r76-28" value="JFrame" style="swimlane;fontStyle=1;align=center;verticalAlign=top;childLayout=stackLayout;horizontal=1;startSize=26;horizontalStack=0;resizeParent=1;resizeParentMax=0;resizeLast=0;collapsible=1;marginBottom=0;" parent="1" vertex="1">
          <mxGeometry x="1000" y="720" width="160" height="34" as="geometry" />
        </mxCell>
        <mxCell id="E8JkrkgCadUgXfBp5r76-29" value="" style="line;strokeWidth=1;fillColor=none;align=left;verticalAlign=middle;spacingTop=-1;spacingLeft=3;spacingRight=3;rotatable=0;labelPosition=right;points=[];portConstraint=eastwest;" parent="E8JkrkgCadUgXfBp5r76-28" vertex="1">
          <mxGeometry y="26" width="160" height="8" as="geometry" />
        </mxCell>
        <mxCell id="E8JkrkgCadUgXfBp5r76-30" value="JTextArea" style="swimlane;fontStyle=1;align=center;verticalAlign=top;childLayout=stackLayout;horizontal=1;startSize=26;horizontalStack=0;resizeParent=1;resizeParentMax=0;resizeLast=0;collapsible=1;marginBottom=0;" parent="1" vertex="1">
          <mxGeometry x="1110" y="1148" width="160" height="34" as="geometry" />
        </mxCell>
        <mxCell id="E8JkrkgCadUgXfBp5r76-31" value="" style="line;strokeWidth=1;fillColor=none;align=left;verticalAlign=middle;spacingTop=-1;spacingLeft=3;spacingRight=3;rotatable=0;labelPosition=right;points=[];portConstraint=eastwest;" parent="E8JkrkgCadUgXfBp5r76-30" vertex="1">
          <mxGeometry y="26" width="160" height="8" as="geometry" />
        </mxCell>
        <mxCell id="E8JkrkgCadUgXfBp5r76-32" value="Ecouteur" style="swimlane;fontStyle=1;align=center;verticalAlign=top;childLayout=stackLayout;horizontal=1;startSize=26;horizontalStack=0;resizeParent=1;resizeParentMax=0;resizeLast=0;collapsible=1;marginBottom=0;" parent="1" vertex="1">
          <mxGeometry x="1410" y="950" width="160" height="34" as="geometry" />
        </mxCell>
        <mxCell id="E8JkrkgCadUgXfBp5r76-33" value="" style="line;strokeWidth=1;fillColor=none;align=left;verticalAlign=middle;spacingTop=-1;spacingLeft=3;spacingRight=3;rotatable=0;labelPosition=right;points=[];portConstraint=eastwest;" parent="E8JkrkgCadUgXfBp5r76-32" vertex="1">
          <mxGeometry y="26" width="160" height="8" as="geometry" />
        </mxCell>
        <mxCell id="E8JkrkgCadUgXfBp5r76-35" value="Thread" style="swimlane;fontStyle=1;align=center;verticalAlign=top;childLayout=stackLayout;horizontal=1;startSize=26;horizontalStack=0;resizeParent=1;resizeParentMax=0;resizeLast=0;collapsible=1;marginBottom=0;" parent="1" vertex="1">
          <mxGeometry x="1410" y="850" width="160" height="34" as="geometry" />
        </mxCell>
        <mxCell id="E8JkrkgCadUgXfBp5r76-36" value="" style="line;strokeWidth=1;fillColor=none;align=left;verticalAlign=middle;spacingTop=-1;spacingLeft=3;spacingRight=3;rotatable=0;labelPosition=right;points=[];portConstraint=eastwest;" parent="E8JkrkgCadUgXfBp5r76-35" vertex="1">
          <mxGeometry y="26" width="160" height="8" as="geometry" />
        </mxCell>
        <mxCell id="E8JkrkgCadUgXfBp5r76-37" value="" style="endArrow=block;endSize=16;endFill=0;html=1;exitX=0.5;exitY=0;exitDx=0;exitDy=0;entryX=0.5;entryY=1;entryDx=0;entryDy=0;" parent="1" source="E8JkrkgCadUgXfBp5r76-24" target="E8JkrkgCadUgXfBp5r76-28" edge="1">
          <mxGeometry width="160" relative="1" as="geometry">
            <mxPoint x="1000" y="860" as="sourcePoint" />
            <mxPoint x="1160" y="860" as="targetPoint" />
            <Array as="points" />
          </mxGeometry>
        </mxCell>
        <mxCell id="E8JkrkgCadUgXfBp5r76-38" value="" style="endArrow=block;endSize=16;endFill=0;html=1;entryX=0.5;entryY=1;entryDx=0;entryDy=0;" parent="1" target="E8JkrkgCadUgXfBp5r76-35" edge="1">
          <mxGeometry width="160" relative="1" as="geometry">
            <mxPoint x="1490" y="950" as="sourcePoint" />
            <mxPoint x="1470" y="900" as="targetPoint" />
            <Array as="points" />
          </mxGeometry>
        </mxCell>
        <mxCell id="E8JkrkgCadUgXfBp5r76-43" value="Connexion" style="swimlane;fontStyle=1;align=center;verticalAlign=top;childLayout=stackLayout;horizontal=1;startSize=26;horizontalStack=0;resizeParent=1;resizeParentMax=0;resizeLast=0;collapsible=1;marginBottom=0;" parent="1" vertex="1">
          <mxGeometry x="1460" y="1132.5" width="160" height="34" as="geometry" />
        </mxCell>
        <mxCell id="E8JkrkgCadUgXfBp5r76-44" value="" style="line;strokeWidth=1;fillColor=none;align=left;verticalAlign=middle;spacingTop=-1;spacingLeft=3;spacingRight=3;rotatable=0;labelPosition=right;points=[];portConstraint=eastwest;" parent="E8JkrkgCadUgXfBp5r76-43" vertex="1">
          <mxGeometry y="26" width="160" height="8" as="geometry" />
        </mxCell>
        <mxCell id="E8JkrkgCadUgXfBp5r76-45" value="Socket" style="swimlane;fontStyle=1;align=center;verticalAlign=top;childLayout=stackLayout;horizontal=1;startSize=26;horizontalStack=0;resizeParent=1;resizeParentMax=0;resizeLast=0;collapsible=1;marginBottom=0;" parent="1" vertex="1">
          <mxGeometry x="1690" y="1114" width="160" height="34" as="geometry" />
        </mxCell>
        <mxCell id="E8JkrkgCadUgXfBp5r76-46" value="" style="line;strokeWidth=1;fillColor=none;align=left;verticalAlign=middle;spacingTop=-1;spacingLeft=3;spacingRight=3;rotatable=0;labelPosition=right;points=[];portConstraint=eastwest;" parent="E8JkrkgCadUgXfBp5r76-45" vertex="1">
          <mxGeometry y="26" width="160" height="8" as="geometry" />
        </mxCell>
        <mxCell id="E8JkrkgCadUgXfBp5r76-47" value="ObjectInputStream" style="swimlane;fontStyle=1;align=center;verticalAlign=top;childLayout=stackLayout;horizontal=1;startSize=26;horizontalStack=0;resizeParent=1;resizeParentMax=0;resizeLast=0;collapsible=1;marginBottom=0;" parent="1" vertex="1">
          <mxGeometry x="1690" y="1148" width="160" height="34" as="geometry" />
        </mxCell>
        <mxCell id="E8JkrkgCadUgXfBp5r76-48" value="" style="line;strokeWidth=1;fillColor=none;align=left;verticalAlign=middle;spacingTop=-1;spacingLeft=3;spacingRight=3;rotatable=0;labelPosition=right;points=[];portConstraint=eastwest;" parent="E8JkrkgCadUgXfBp5r76-47" vertex="1">
          <mxGeometry y="26" width="160" height="8" as="geometry" />
        </mxCell>
        <mxCell id="E8JkrkgCadUgXfBp5r76-49" value="ObjectOutputStream" style="swimlane;fontStyle=1;align=center;verticalAlign=top;childLayout=stackLayout;horizontal=1;startSize=26;horizontalStack=0;resizeParent=1;resizeParentMax=0;resizeLast=0;collapsible=1;marginBottom=0;" parent="1" vertex="1">
          <mxGeometry x="1690" y="1182" width="160" height="34" as="geometry" />
        </mxCell>
        <mxCell id="E8JkrkgCadUgXfBp5r76-50" value="" style="line;strokeWidth=1;fillColor=none;align=left;verticalAlign=middle;spacingTop=-1;spacingLeft=3;spacingRight=3;rotatable=0;labelPosition=right;points=[];portConstraint=eastwest;" parent="E8JkrkgCadUgXfBp5r76-49" vertex="1">
          <mxGeometry y="26" width="160" height="8" as="geometry" />
        </mxCell>
        <mxCell id="E8JkrkgCadUgXfBp5r76-51" value="" style="endArrow=diamondThin;endFill=1;endSize=24;html=1;exitX=0;exitY=0.5;exitDx=0;exitDy=0;" parent="1" source="E8JkrkgCadUgXfBp5r76-49" edge="1">
          <mxGeometry width="160" relative="1" as="geometry">
            <mxPoint x="1661" y="1166.5" as="sourcePoint" />
            <mxPoint x="1570" y="1167" as="targetPoint" />
          </mxGeometry>
        </mxCell>
        <mxCell id="E8JkrkgCadUgXfBp5r76-52" value="" style="endArrow=diamondThin;endFill=1;endSize=24;html=1;exitX=0;exitY=0.5;exitDx=0;exitDy=0;entryX=1;entryY=1;entryDx=0;entryDy=0;" parent="1" source="E8JkrkgCadUgXfBp5r76-47" target="E8JkrkgCadUgXfBp5r76-43" edge="1">
          <mxGeometry width="160" relative="1" as="geometry">
            <mxPoint x="1770" y="996.3199999999999" as="sourcePoint" />
            <mxPoint x="1930" y="996.3199999999999" as="targetPoint" />
          </mxGeometry>
        </mxCell>
        <mxCell id="E8JkrkgCadUgXfBp5r76-53" value="" style="endArrow=diamondThin;endFill=1;endSize=24;html=1;exitX=0;exitY=0.5;exitDx=0;exitDy=0;" parent="1" source="E8JkrkgCadUgXfBp5r76-45" edge="1">
          <mxGeometry width="160" relative="1" as="geometry">
            <mxPoint x="1580" y="927.5" as="sourcePoint" />
            <mxPoint x="1620" y="1133" as="targetPoint" />
          </mxGeometry>
        </mxCell>
        <mxCell id="E8JkrkgCadUgXfBp5r76-54" value="model.Joueur" style="swimlane;fontStyle=1;align=center;verticalAlign=top;childLayout=stackLayout;horizontal=1;startSize=26;horizontalStack=0;resizeParent=1;resizeParentMax=0;resizeLast=0;collapsible=1;marginBottom=0;" parent="1" vertex="1">
          <mxGeometry x="1690" y="1080" width="160" height="34" as="geometry" />
        </mxCell>
        <mxCell id="E8JkrkgCadUgXfBp5r76-55" value="" style="line;strokeWidth=1;fillColor=none;align=left;verticalAlign=middle;spacingTop=-1;spacingLeft=3;spacingRight=3;rotatable=0;labelPosition=right;points=[];portConstraint=eastwest;" parent="E8JkrkgCadUgXfBp5r76-54" vertex="1">
          <mxGeometry y="26" width="160" height="8" as="geometry" />
        </mxCell>
        <mxCell id="E8JkrkgCadUgXfBp5r76-56" value="" style="endArrow=diamondThin;endFill=1;endSize=24;html=1;exitX=0;exitY=0.5;exitDx=0;exitDy=0;entryX=0.706;entryY=-0.005;entryDx=0;entryDy=0;entryPerimeter=0;" parent="1" source="E8JkrkgCadUgXfBp5r76-54" target="E8JkrkgCadUgXfBp5r76-43" edge="1">
          <mxGeometry width="160" relative="1" as="geometry">
            <mxPoint x="1650" y="1037.5" as="sourcePoint" />
            <mxPoint x="1620" y="1077.5" as="targetPoint" />
          </mxGeometry>
        </mxCell>
        <mxCell id="E8JkrkgCadUgXfBp5r76-58" value="1" style="text;html=1;align=center;verticalAlign=middle;resizable=0;points=[];autosize=1;" parent="1" vertex="1">
          <mxGeometry x="1570" y="1101" width="20" height="20" as="geometry" />
        </mxCell>
        <mxCell id="E8JkrkgCadUgXfBp5r76-59" value="1" style="text;html=1;align=center;verticalAlign=middle;resizable=0;points=[];autosize=1;" parent="1" vertex="1">
          <mxGeometry x="1670" y="1081" width="20" height="20" as="geometry" />
        </mxCell>
        <mxCell id="E8JkrkgCadUgXfBp5r76-60" value="1" style="text;html=1;align=center;verticalAlign=middle;resizable=0;points=[];autosize=1;" parent="1" vertex="1">
          <mxGeometry x="1640" y="1111" width="20" height="20" as="geometry" />
        </mxCell>
        <mxCell id="E8JkrkgCadUgXfBp5r76-61" value="1" style="text;html=1;align=center;verticalAlign=middle;resizable=0;points=[];autosize=1;" parent="1" vertex="1">
          <mxGeometry x="1670" y="1111" width="20" height="20" as="geometry" />
        </mxCell>
        <mxCell id="E8JkrkgCadUgXfBp5r76-62" value="1" style="text;html=1;align=center;verticalAlign=middle;resizable=0;points=[];autosize=1;" parent="1" vertex="1">
          <mxGeometry x="1640" y="1141" width="20" height="20" as="geometry" />
        </mxCell>
        <mxCell id="E8JkrkgCadUgXfBp5r76-63" value="1" style="text;html=1;align=center;verticalAlign=middle;resizable=0;points=[];autosize=1;" parent="1" vertex="1">
          <mxGeometry x="1670" y="1141" width="20" height="20" as="geometry" />
        </mxCell>
        <mxCell id="E8JkrkgCadUgXfBp5r76-64" value="1" style="text;html=1;align=center;verticalAlign=middle;resizable=0;points=[];autosize=1;" parent="1" vertex="1">
          <mxGeometry x="1580" y="1171" width="20" height="20" as="geometry" />
        </mxCell>
        <mxCell id="E8JkrkgCadUgXfBp5r76-65" value="1" style="text;html=1;align=center;verticalAlign=middle;resizable=0;points=[];autosize=1;" parent="1" vertex="1">
          <mxGeometry x="1660" y="1201" width="20" height="20" as="geometry" />
        </mxCell>
        <mxCell id="E8JkrkgCadUgXfBp5r76-66" value="" style="endArrow=diamondThin;endFill=1;endSize=24;html=1;exitX=0.5;exitY=0;exitDx=0;exitDy=0;entryX=0.25;entryY=1;entryDx=0;entryDy=0;" parent="1" source="E8JkrkgCadUgXfBp5r76-30" target="E8JkrkgCadUgXfBp5r76-81" edge="1">
          <mxGeometry width="160" relative="1" as="geometry">
            <mxPoint x="1130" y="1037" as="sourcePoint" />
            <mxPoint x="1140" y="1057" as="targetPoint" />
          </mxGeometry>
        </mxCell>
        <mxCell id="E8JkrkgCadUgXfBp5r76-67" value="" style="endArrow=diamondThin;endFill=1;endSize=24;html=1;exitX=0;exitY=0.5;exitDx=0;exitDy=0;entryX=1;entryY=1;entryDx=0;entryDy=0;" parent="1" source="E8JkrkgCadUgXfBp5r76-43" target="E8JkrkgCadUgXfBp5r76-81" edge="1">
          <mxGeometry width="160" relative="1" as="geometry">
            <mxPoint x="1260" y="1164.58" as="sourcePoint" />
            <mxPoint x="1310" y="1150" as="targetPoint" />
            <Array as="points" />
          </mxGeometry>
        </mxCell>
        <mxCell id="E8JkrkgCadUgXfBp5r76-71" value="JButton" style="swimlane;fontStyle=1;align=center;verticalAlign=top;childLayout=stackLayout;horizontal=1;startSize=26;horizontalStack=0;resizeParent=1;resizeParentMax=0;resizeLast=0;collapsible=1;marginBottom=0;" parent="1" vertex="1">
          <mxGeometry x="1280" y="1290" width="160" height="34" as="geometry" />
        </mxCell>
        <mxCell id="E8JkrkgCadUgXfBp5r76-73" value="" style="line;strokeWidth=1;fillColor=none;align=left;verticalAlign=middle;spacingTop=-1;spacingLeft=3;spacingRight=3;rotatable=0;labelPosition=right;points=[];portConstraint=eastwest;" parent="E8JkrkgCadUgXfBp5r76-71" vertex="1">
          <mxGeometry y="26" width="160" height="8" as="geometry" />
        </mxCell>
        <mxCell id="E8JkrkgCadUgXfBp5r76-75" value="" style="endArrow=diamondThin;endFill=1;endSize=24;html=1;exitX=0.5;exitY=0;exitDx=0;exitDy=0;entryX=0.75;entryY=1;entryDx=0;entryDy=0;" parent="1" source="E8JkrkgCadUgXfBp5r76-71" target="E8JkrkgCadUgXfBp5r76-81" edge="1">
          <mxGeometry width="160" relative="1" as="geometry">
            <mxPoint x="1390" y="1294" as="sourcePoint" />
            <mxPoint x="1490" y="1294.42" as="targetPoint" />
            <Array as="points" />
          </mxGeometry>
        </mxCell>
        <mxCell id="E8JkrkgCadUgXfBp5r76-77" value="JTextField" style="swimlane;fontStyle=1;align=center;verticalAlign=top;childLayout=stackLayout;horizontal=1;startSize=26;horizontalStack=0;resizeParent=1;resizeParentMax=0;resizeLast=0;collapsible=1;marginBottom=0;" parent="1" vertex="1">
          <mxGeometry x="590" y="1182" width="160" height="34" as="geometry" />
        </mxCell>
        <mxCell id="E8JkrkgCadUgXfBp5r76-78" value="" style="line;strokeWidth=1;fillColor=none;align=left;verticalAlign=middle;spacingTop=-1;spacingLeft=3;spacingRight=3;rotatable=0;labelPosition=right;points=[];portConstraint=eastwest;" parent="E8JkrkgCadUgXfBp5r76-77" vertex="1">
          <mxGeometry y="26" width="160" height="8" as="geometry" />
        </mxCell>
        <mxCell id="E8JkrkgCadUgXfBp5r76-231" style="edgeStyle=orthogonalEdgeStyle;rounded=0;orthogonalLoop=1;jettySize=auto;html=1;exitX=1;exitY=0.5;exitDx=0;exitDy=0;entryX=0;entryY=0.5;entryDx=0;entryDy=0;" parent="1" source="E8JkrkgCadUgXfBp5r76-79" target="E8JkrkgCadUgXfBp5r76-81" edge="1">
          <mxGeometry relative="1" as="geometry" />
        </mxCell>
        <mxCell id="E8JkrkgCadUgXfBp5r76-79" value="PageLogin&#xa;" style="swimlane;fontStyle=1;align=center;verticalAlign=top;childLayout=stackLayout;horizontal=1;startSize=26;horizontalStack=0;resizeParent=1;resizeParentMax=0;resizeLast=0;collapsible=1;marginBottom=0;" parent="1" vertex="1">
          <mxGeometry x="864" y="950" width="160" height="34" as="geometry" />
        </mxCell>
        <mxCell id="E8JkrkgCadUgXfBp5r76-80" value="" style="line;strokeWidth=1;fillColor=none;align=left;verticalAlign=middle;spacingTop=-1;spacingLeft=3;spacingRight=3;rotatable=0;labelPosition=right;points=[];portConstraint=eastwest;" parent="E8JkrkgCadUgXfBp5r76-79" vertex="1">
          <mxGeometry y="26" width="160" height="8" as="geometry" />
        </mxCell>
        <mxCell id="E8JkrkgCadUgXfBp5r76-81" value="PageGame" style="swimlane;fontStyle=1;align=center;verticalAlign=top;childLayout=stackLayout;horizontal=1;startSize=26;horizontalStack=0;resizeParent=1;resizeParentMax=0;resizeLast=0;collapsible=1;marginBottom=0;" parent="1" vertex="1">
          <mxGeometry x="1170" y="950" width="160" height="34" as="geometry" />
        </mxCell>
        <mxCell id="E8JkrkgCadUgXfBp5r76-82" value="" style="line;strokeWidth=1;fillColor=none;align=left;verticalAlign=middle;spacingTop=-1;spacingLeft=3;spacingRight=3;rotatable=0;labelPosition=right;points=[];portConstraint=eastwest;" parent="E8JkrkgCadUgXfBp5r76-81" vertex="1">
          <mxGeometry y="26" width="160" height="8" as="geometry" />
        </mxCell>
        <mxCell id="E8JkrkgCadUgXfBp5r76-86" value="JButton" style="swimlane;fontStyle=1;align=center;verticalAlign=top;childLayout=stackLayout;horizontal=1;startSize=26;horizontalStack=0;resizeParent=1;resizeParentMax=0;resizeLast=0;collapsible=1;marginBottom=0;" parent="1" vertex="1">
          <mxGeometry x="934" y="1287" width="160" height="34" as="geometry" />
        </mxCell>
        <mxCell id="E8JkrkgCadUgXfBp5r76-87" value="" style="line;strokeWidth=1;fillColor=none;align=left;verticalAlign=middle;spacingTop=-1;spacingLeft=3;spacingRight=3;rotatable=0;labelPosition=right;points=[];portConstraint=eastwest;" parent="E8JkrkgCadUgXfBp5r76-86" vertex="1">
          <mxGeometry y="26" width="160" height="8" as="geometry" />
        </mxCell>
        <mxCell id="E8JkrkgCadUgXfBp5r76-88" value="" style="endArrow=diamondThin;endFill=1;endSize=24;html=1;exitX=0.5;exitY=0;exitDx=0;exitDy=0;entryX=0.75;entryY=1;entryDx=0;entryDy=0;" parent="1" source="E8JkrkgCadUgXfBp5r76-86" target="E8JkrkgCadUgXfBp5r76-79" edge="1">
          <mxGeometry width="160" relative="1" as="geometry">
            <mxPoint x="930" y="1291" as="sourcePoint" />
            <mxPoint x="830.0000000000005" y="981" as="targetPoint" />
            <Array as="points" />
          </mxGeometry>
        </mxCell>
        <mxCell id="E8JkrkgCadUgXfBp5r76-90" value="" style="endArrow=diamondThin;endFill=1;endSize=24;html=1;exitX=0.75;exitY=0;exitDx=0;exitDy=0;entryX=0.25;entryY=1;entryDx=0;entryDy=0;" parent="1" source="E8JkrkgCadUgXfBp5r76-77" target="E8JkrkgCadUgXfBp5r76-79" edge="1">
          <mxGeometry width="160" relative="1" as="geometry">
            <mxPoint x="826" y="1289.9999999999998" as="sourcePoint" />
            <mxPoint x="910.0000000000005" y="987" as="targetPoint" />
            <Array as="points" />
          </mxGeometry>
        </mxCell>
        <mxCell id="E8JkrkgCadUgXfBp5r76-91" value="JTextArea" style="swimlane;fontStyle=1;align=center;verticalAlign=top;childLayout=stackLayout;horizontal=1;startSize=26;horizontalStack=0;resizeParent=1;resizeParentMax=0;resizeLast=0;collapsible=1;marginBottom=0;" parent="1" vertex="1">
          <mxGeometry x="530" y="1097" width="160" height="34" as="geometry" />
        </mxCell>
        <mxCell id="E8JkrkgCadUgXfBp5r76-92" value="" style="line;strokeWidth=1;fillColor=none;align=left;verticalAlign=middle;spacingTop=-1;spacingLeft=3;spacingRight=3;rotatable=0;labelPosition=right;points=[];portConstraint=eastwest;" parent="E8JkrkgCadUgXfBp5r76-91" vertex="1">
          <mxGeometry y="26" width="160" height="8" as="geometry" />
        </mxCell>
        <mxCell id="E8JkrkgCadUgXfBp5r76-93" value="" style="endArrow=diamondThin;endFill=1;endSize=24;html=1;exitX=0.5;exitY=0;exitDx=0;exitDy=0;entryX=0;entryY=0.5;entryDx=0;entryDy=0;" parent="1" source="E8JkrkgCadUgXfBp5r76-91" target="E8JkrkgCadUgXfBp5r76-79" edge="1">
          <mxGeometry width="160" relative="1" as="geometry">
            <mxPoint x="630" y="1024" as="sourcePoint" />
            <mxPoint x="710" y="971" as="targetPoint" />
          </mxGeometry>
        </mxCell>
        <mxCell id="E8JkrkgCadUgXfBp5r76-94" value="" style="endArrow=diamondThin;endFill=1;endSize=24;html=1;exitX=0;exitY=0.5;exitDx=0;exitDy=0;entryX=1;entryY=0.5;entryDx=0;entryDy=0;" parent="1" source="E8JkrkgCadUgXfBp5r76-32" target="E8JkrkgCadUgXfBp5r76-81" edge="1">
          <mxGeometry width="160" relative="1" as="geometry">
            <mxPoint x="1470" y="1131.0000000000002" as="sourcePoint" />
            <mxPoint x="1340" y="965.5" as="targetPoint" />
            <Array as="points" />
          </mxGeometry>
        </mxCell>
        <mxCell id="E8JkrkgCadUgXfBp5r76-97" value="" style="endArrow=diamondThin;endFill=1;endSize=24;html=1;exitX=0.5;exitY=0;exitDx=0;exitDy=0;entryX=0.25;entryY=1;entryDx=0;entryDy=0;" parent="1" source="E8JkrkgCadUgXfBp5r76-79" target="E8JkrkgCadUgXfBp5r76-24" edge="1">
          <mxGeometry width="160" relative="1" as="geometry">
            <mxPoint x="934" y="920" as="sourcePoint" />
            <mxPoint x="1094" y="920" as="targetPoint" />
          </mxGeometry>
        </mxCell>
        <mxCell id="E8JkrkgCadUgXfBp5r76-98" value="" style="endArrow=diamondThin;endFill=1;endSize=24;html=1;exitX=0.5;exitY=0;exitDx=0;exitDy=0;entryX=0.75;entryY=1;entryDx=0;entryDy=0;" parent="1" source="E8JkrkgCadUgXfBp5r76-81" target="E8JkrkgCadUgXfBp5r76-24" edge="1">
          <mxGeometry width="160" relative="1" as="geometry">
            <mxPoint x="1345" y="895.5000000000002" as="sourcePoint" />
            <mxPoint x="1215" y="730" as="targetPoint" />
            <Array as="points" />
          </mxGeometry>
        </mxCell>
        <mxCell id="E8JkrkgCadUgXfBp5r76-104" value="ApplicationAdmin" style="swimlane;fontStyle=1;align=center;verticalAlign=top;childLayout=stackLayout;horizontal=1;startSize=26;horizontalStack=0;resizeParent=1;resizeParentMax=0;resizeLast=0;collapsible=1;marginBottom=0;" parent="1" vertex="1">
          <mxGeometry x="2660" y="854" width="160" height="34" as="geometry">
            <mxRectangle x="2660" y="854" width="140" height="26" as="alternateBounds" />
          </mxGeometry>
        </mxCell>
        <mxCell id="E8JkrkgCadUgXfBp5r76-105" value="" style="line;strokeWidth=1;fillColor=none;align=left;verticalAlign=middle;spacingTop=-1;spacingLeft=3;spacingRight=3;rotatable=0;labelPosition=right;points=[];portConstraint=eastwest;" parent="E8JkrkgCadUgXfBp5r76-104" vertex="1">
          <mxGeometry y="26" width="160" height="8" as="geometry" />
        </mxCell>
        <mxCell id="E8JkrkgCadUgXfBp5r76-106" value="JFrame" style="swimlane;fontStyle=1;align=center;verticalAlign=top;childLayout=stackLayout;horizontal=1;startSize=26;horizontalStack=0;resizeParent=1;resizeParentMax=0;resizeLast=0;collapsible=1;marginBottom=0;" parent="1" vertex="1">
          <mxGeometry x="2660" y="754" width="160" height="34" as="geometry" />
        </mxCell>
        <mxCell id="E8JkrkgCadUgXfBp5r76-107" value="" style="line;strokeWidth=1;fillColor=none;align=left;verticalAlign=middle;spacingTop=-1;spacingLeft=3;spacingRight=3;rotatable=0;labelPosition=right;points=[];portConstraint=eastwest;" parent="E8JkrkgCadUgXfBp5r76-106" vertex="1">
          <mxGeometry y="26" width="160" height="8" as="geometry" />
        </mxCell>
        <mxCell id="E8JkrkgCadUgXfBp5r76-108" value="JTextArea" style="swimlane;fontStyle=1;align=center;verticalAlign=top;childLayout=stackLayout;horizontal=1;startSize=26;horizontalStack=0;resizeParent=1;resizeParentMax=0;resizeLast=0;collapsible=1;marginBottom=0;" parent="1" vertex="1">
          <mxGeometry x="2790" y="1167" width="160" height="34" as="geometry" />
        </mxCell>
        <mxCell id="E8JkrkgCadUgXfBp5r76-109" value="" style="line;strokeWidth=1;fillColor=none;align=left;verticalAlign=middle;spacingTop=-1;spacingLeft=3;spacingRight=3;rotatable=0;labelPosition=right;points=[];portConstraint=eastwest;" parent="E8JkrkgCadUgXfBp5r76-108" vertex="1">
          <mxGeometry y="26" width="160" height="8" as="geometry" />
        </mxCell>
        <mxCell id="E8JkrkgCadUgXfBp5r76-114" value="" style="endArrow=block;endSize=16;endFill=0;html=1;exitX=0.5;exitY=0;exitDx=0;exitDy=0;entryX=0.5;entryY=1;entryDx=0;entryDy=0;" parent="1" source="E8JkrkgCadUgXfBp5r76-104" target="E8JkrkgCadUgXfBp5r76-106" edge="1">
          <mxGeometry width="160" relative="1" as="geometry">
            <mxPoint x="2660" y="894" as="sourcePoint" />
            <mxPoint x="2820" y="894" as="targetPoint" />
            <Array as="points" />
          </mxGeometry>
        </mxCell>
        <mxCell id="E8JkrkgCadUgXfBp5r76-139" value="" style="endArrow=diamondThin;endFill=1;endSize=24;html=1;exitX=0.5;exitY=0;exitDx=0;exitDy=0;entryX=0.25;entryY=1;entryDx=0;entryDy=0;" parent="1" source="E8JkrkgCadUgXfBp5r76-108" target="E8JkrkgCadUgXfBp5r76-148" edge="1">
          <mxGeometry width="160" relative="1" as="geometry">
            <mxPoint x="2790" y="1071" as="sourcePoint" />
            <mxPoint x="2800" y="1091" as="targetPoint" />
          </mxGeometry>
        </mxCell>
        <mxCell id="E8JkrkgCadUgXfBp5r76-141" value="JButton" style="swimlane;fontStyle=1;align=center;verticalAlign=top;childLayout=stackLayout;horizontal=1;startSize=26;horizontalStack=0;resizeParent=1;resizeParentMax=0;resizeLast=0;collapsible=1;marginBottom=0;" parent="1" vertex="1">
          <mxGeometry x="2970" y="1167" width="160" height="34" as="geometry" />
        </mxCell>
        <mxCell id="E8JkrkgCadUgXfBp5r76-142" value="" style="line;strokeWidth=1;fillColor=none;align=left;verticalAlign=middle;spacingTop=-1;spacingLeft=3;spacingRight=3;rotatable=0;labelPosition=right;points=[];portConstraint=eastwest;" parent="E8JkrkgCadUgXfBp5r76-141" vertex="1">
          <mxGeometry y="26" width="160" height="8" as="geometry" />
        </mxCell>
        <mxCell id="E8JkrkgCadUgXfBp5r76-143" value="" style="endArrow=diamondThin;endFill=1;endSize=24;html=1;exitX=0.5;exitY=0;exitDx=0;exitDy=0;entryX=0.75;entryY=1;entryDx=0;entryDy=0;" parent="1" source="E8JkrkgCadUgXfBp5r76-141" target="E8JkrkgCadUgXfBp5r76-148" edge="1">
          <mxGeometry width="160" relative="1" as="geometry">
            <mxPoint x="3050" y="1328" as="sourcePoint" />
            <mxPoint x="3150" y="1328.42" as="targetPoint" />
            <Array as="points" />
          </mxGeometry>
        </mxCell>
        <mxCell id="E8JkrkgCadUgXfBp5r76-148" value="PageAdmin" style="swimlane;fontStyle=1;align=center;verticalAlign=top;childLayout=stackLayout;horizontal=1;startSize=26;horizontalStack=0;resizeParent=1;resizeParentMax=0;resizeLast=0;collapsible=1;marginBottom=0;" parent="1" vertex="1">
          <mxGeometry x="2830" y="984" width="160" height="34" as="geometry" />
        </mxCell>
        <mxCell id="E8JkrkgCadUgXfBp5r76-149" value="" style="line;strokeWidth=1;fillColor=none;align=left;verticalAlign=middle;spacingTop=-1;spacingLeft=3;spacingRight=3;rotatable=0;labelPosition=right;points=[];portConstraint=eastwest;" parent="E8JkrkgCadUgXfBp5r76-148" vertex="1">
          <mxGeometry y="26" width="160" height="8" as="geometry" />
        </mxCell>
        <mxCell id="E8JkrkgCadUgXfBp5r76-158" value="" style="endArrow=diamondThin;endFill=1;endSize=24;html=1;exitX=0.5;exitY=0;exitDx=0;exitDy=0;entryX=0.25;entryY=1;entryDx=0;entryDy=0;" parent="1" source="E8JkrkgCadUgXfBp5r76-194" target="E8JkrkgCadUgXfBp5r76-104" edge="1">
          <mxGeometry width="160" relative="1" as="geometry">
            <mxPoint x="2604" y="984" as="sourcePoint" />
            <mxPoint x="2754" y="954" as="targetPoint" />
          </mxGeometry>
        </mxCell>
        <mxCell id="E8JkrkgCadUgXfBp5r76-159" value="" style="endArrow=diamondThin;endFill=1;endSize=24;html=1;exitX=0.5;exitY=0;exitDx=0;exitDy=0;entryX=0.75;entryY=1;entryDx=0;entryDy=0;" parent="1" source="E8JkrkgCadUgXfBp5r76-148" target="E8JkrkgCadUgXfBp5r76-104" edge="1">
          <mxGeometry width="160" relative="1" as="geometry">
            <mxPoint x="3005" y="929.5000000000002" as="sourcePoint" />
            <mxPoint x="2875" y="764" as="targetPoint" />
            <Array as="points" />
          </mxGeometry>
        </mxCell>
        <mxCell id="E8JkrkgCadUgXfBp5r76-160" value="JTextField" style="swimlane;fontStyle=1;align=center;verticalAlign=top;childLayout=stackLayout;horizontal=1;startSize=26;horizontalStack=0;resizeParent=1;resizeParentMax=0;resizeLast=0;collapsible=1;marginBottom=0;" parent="1" vertex="1">
          <mxGeometry x="3148" y="1000" width="160" height="34" as="geometry" />
        </mxCell>
        <mxCell id="E8JkrkgCadUgXfBp5r76-161" value="" style="line;strokeWidth=1;fillColor=none;align=left;verticalAlign=middle;spacingTop=-1;spacingLeft=3;spacingRight=3;rotatable=0;labelPosition=right;points=[];portConstraint=eastwest;" parent="E8JkrkgCadUgXfBp5r76-160" vertex="1">
          <mxGeometry y="26" width="160" height="8" as="geometry" />
        </mxCell>
        <mxCell id="E8JkrkgCadUgXfBp5r76-162" value="" style="endArrow=diamondThin;endFill=1;endSize=24;html=1;exitX=0;exitY=0.5;exitDx=0;exitDy=0;entryX=1;entryY=0.5;entryDx=0;entryDy=0;" parent="1" source="E8JkrkgCadUgXfBp5r76-160" target="E8JkrkgCadUgXfBp5r76-148" edge="1">
          <mxGeometry width="160" relative="1" as="geometry">
            <mxPoint x="2870" y="940" as="sourcePoint" />
            <mxPoint x="3030" y="940" as="targetPoint" />
          </mxGeometry>
        </mxCell>
        <mxCell id="E8JkrkgCadUgXfBp5r76-164" value="0...1" style="text;html=1;align=center;verticalAlign=middle;resizable=0;points=[];autosize=1;" parent="1" vertex="1">
          <mxGeometry x="900" y="930" width="40" height="20" as="geometry" />
        </mxCell>
        <mxCell id="E8JkrkgCadUgXfBp5r76-165" value="1" style="text;html=1;align=center;verticalAlign=middle;resizable=0;points=[];autosize=1;" parent="1" vertex="1">
          <mxGeometry x="1000" y="857" width="20" height="20" as="geometry" />
        </mxCell>
        <mxCell id="E8JkrkgCadUgXfBp5r76-166" value="1" style="text;html=1;align=center;verticalAlign=middle;resizable=0;points=[];autosize=1;" parent="1" vertex="1">
          <mxGeometry x="600" y="1077" width="20" height="20" as="geometry" />
        </mxCell>
        <mxCell id="E8JkrkgCadUgXfBp5r76-167" value="1" style="text;html=1;align=center;verticalAlign=middle;resizable=0;points=[];autosize=1;" parent="1" vertex="1">
          <mxGeometry x="820" y="960" width="20" height="20" as="geometry" />
        </mxCell>
        <mxCell id="E8JkrkgCadUgXfBp5r76-168" value="2" style="text;html=1;align=center;verticalAlign=middle;resizable=0;points=[];autosize=1;" parent="1" vertex="1">
          <mxGeometry x="695" y="1165" width="20" height="20" as="geometry" />
        </mxCell>
        <mxCell id="E8JkrkgCadUgXfBp5r76-169" value="JLabel" style="swimlane;fontStyle=1;align=center;verticalAlign=top;childLayout=stackLayout;horizontal=1;startSize=26;horizontalStack=0;resizeParent=1;resizeParentMax=0;resizeLast=0;collapsible=1;marginBottom=0;" parent="1" vertex="1">
          <mxGeometry x="770" y="1239" width="160" height="34" as="geometry" />
        </mxCell>
        <mxCell id="E8JkrkgCadUgXfBp5r76-170" value="" style="line;strokeWidth=1;fillColor=none;align=left;verticalAlign=middle;spacingTop=-1;spacingLeft=3;spacingRight=3;rotatable=0;labelPosition=right;points=[];portConstraint=eastwest;" parent="E8JkrkgCadUgXfBp5r76-169" vertex="1">
          <mxGeometry y="26" width="160" height="8" as="geometry" />
        </mxCell>
        <mxCell id="E8JkrkgCadUgXfBp5r76-171" value="" style="endArrow=diamondThin;endFill=1;endSize=24;html=1;exitX=0.5;exitY=0;exitDx=0;exitDy=0;entryX=0.5;entryY=1;entryDx=0;entryDy=0;" parent="1" source="E8JkrkgCadUgXfBp5r76-169" target="E8JkrkgCadUgXfBp5r76-79" edge="1">
          <mxGeometry width="160" relative="1" as="geometry">
            <mxPoint x="740" y="1197.9999999999998" as="sourcePoint" />
            <mxPoint x="934.0000000000005" y="1000.0000000000002" as="targetPoint" />
            <Array as="points" />
          </mxGeometry>
        </mxCell>
        <mxCell id="E8JkrkgCadUgXfBp5r76-172" value="2" style="text;html=1;align=center;verticalAlign=middle;resizable=0;points=[];autosize=1;" parent="1" vertex="1">
          <mxGeometry x="830" y="1219" width="20" height="20" as="geometry" />
        </mxCell>
        <mxCell id="E8JkrkgCadUgXfBp5r76-173" value="2" style="text;html=1;align=center;verticalAlign=middle;resizable=0;points=[];autosize=1;" parent="1" vertex="1">
          <mxGeometry x="1020" y="1267" width="20" height="20" as="geometry" />
        </mxCell>
        <mxCell id="E8JkrkgCadUgXfBp5r76-174" value="1" style="text;html=1;align=center;verticalAlign=middle;resizable=0;points=[];autosize=1;" parent="1" vertex="1">
          <mxGeometry x="870" y="984" width="20" height="20" as="geometry" />
        </mxCell>
        <mxCell id="E8JkrkgCadUgXfBp5r76-175" value="1" style="text;html=1;align=center;verticalAlign=middle;resizable=0;points=[];autosize=1;" parent="1" vertex="1">
          <mxGeometry x="920" y="991" width="20" height="20" as="geometry" />
        </mxCell>
        <mxCell id="E8JkrkgCadUgXfBp5r76-176" value="1" style="text;html=1;align=center;verticalAlign=middle;resizable=0;points=[];autosize=1;" parent="1" vertex="1">
          <mxGeometry x="990" y="991" width="20" height="20" as="geometry" />
        </mxCell>
        <mxCell id="E8JkrkgCadUgXfBp5r76-177" value="0...1" style="text;html=1;align=center;verticalAlign=middle;resizable=0;points=[];autosize=1;" parent="1" vertex="1">
          <mxGeometry x="1241" y="930" width="40" height="20" as="geometry" />
        </mxCell>
        <mxCell id="E8JkrkgCadUgXfBp5r76-178" value="1" style="text;html=1;align=center;verticalAlign=middle;resizable=0;points=[];autosize=1;" parent="1" vertex="1">
          <mxGeometry x="1140" y="854" width="20" height="20" as="geometry" />
        </mxCell>
        <mxCell id="E8JkrkgCadUgXfBp5r76-179" value="7" style="text;html=1;align=center;verticalAlign=middle;resizable=0;points=[];autosize=1;rotation=0;" parent="1" vertex="1">
          <mxGeometry x="1190" y="1128" width="20" height="20" as="geometry" />
        </mxCell>
        <mxCell id="E8JkrkgCadUgXfBp5r76-180" value="1" style="text;html=1;align=center;verticalAlign=middle;resizable=0;points=[];autosize=1;" parent="1" vertex="1">
          <mxGeometry x="1210" y="984" width="20" height="20" as="geometry" />
        </mxCell>
        <mxCell id="E8JkrkgCadUgXfBp5r76-181" value="1" style="text;html=1;align=center;verticalAlign=middle;resizable=0;points=[];autosize=1;" parent="1" vertex="1">
          <mxGeometry x="1261" y="991" width="20" height="20" as="geometry" />
        </mxCell>
        <mxCell id="E8JkrkgCadUgXfBp5r76-182" value="1" style="text;html=1;align=center;verticalAlign=middle;resizable=0;points=[];autosize=1;" parent="1" vertex="1">
          <mxGeometry x="1350" y="984" width="20" height="20" as="geometry" />
        </mxCell>
        <mxCell id="E8JkrkgCadUgXfBp5r76-183" value="1" style="text;html=1;align=center;verticalAlign=middle;resizable=0;points=[];autosize=1;" parent="1" vertex="1">
          <mxGeometry x="1330" y="940" width="20" height="20" as="geometry" />
        </mxCell>
        <mxCell id="E8JkrkgCadUgXfBp5r76-184" value="4" style="text;html=1;align=center;verticalAlign=middle;resizable=0;points=[];autosize=1;" parent="1" vertex="1">
          <mxGeometry x="1360" y="1270" width="20" height="20" as="geometry" />
        </mxCell>
        <mxCell id="E8JkrkgCadUgXfBp5r76-185" value="1" style="text;html=1;align=center;verticalAlign=middle;resizable=0;points=[];autosize=1;" parent="1" vertex="1">
          <mxGeometry x="1440" y="1139.5" width="20" height="20" as="geometry" />
        </mxCell>
        <mxCell id="E8JkrkgCadUgXfBp5r76-186" value="1" style="text;html=1;align=center;verticalAlign=middle;resizable=0;points=[];autosize=1;" parent="1" vertex="1">
          <mxGeometry x="1390" y="940" width="20" height="20" as="geometry" />
        </mxCell>
        <mxCell id="E8JkrkgCadUgXfBp5r76-188" value="client" style="shape=umlFrame;whiteSpace=wrap;html=1;fillColor=none;" parent="1" vertex="1">
          <mxGeometry x="479.5" y="700" width="1381" height="710" as="geometry" />
        </mxCell>
        <mxCell id="E8JkrkgCadUgXfBp5r76-192" value="JTextField" style="swimlane;fontStyle=1;align=center;verticalAlign=top;childLayout=stackLayout;horizontal=1;startSize=26;horizontalStack=0;resizeParent=1;resizeParentMax=0;resizeLast=0;collapsible=1;marginBottom=0;" parent="1" vertex="1">
          <mxGeometry x="2210" y="1237.5" width="160" height="34" as="geometry" />
        </mxCell>
        <mxCell id="E8JkrkgCadUgXfBp5r76-193" value="" style="line;strokeWidth=1;fillColor=none;align=left;verticalAlign=middle;spacingTop=-1;spacingLeft=3;spacingRight=3;rotatable=0;labelPosition=right;points=[];portConstraint=eastwest;" parent="E8JkrkgCadUgXfBp5r76-192" vertex="1">
          <mxGeometry y="26" width="160" height="8" as="geometry" />
        </mxCell>
        <mxCell id="E8JkrkgCadUgXfBp5r76-194" value="PageLogin&#xa;" style="swimlane;fontStyle=1;align=center;verticalAlign=top;childLayout=stackLayout;horizontal=1;startSize=26;horizontalStack=0;resizeParent=1;resizeParentMax=0;resizeLast=0;collapsible=1;marginBottom=0;" parent="1" vertex="1">
          <mxGeometry x="2514" y="980.5" width="160" height="34" as="geometry" />
        </mxCell>
        <mxCell id="E8JkrkgCadUgXfBp5r76-195" value="" style="line;strokeWidth=1;fillColor=none;align=left;verticalAlign=middle;spacingTop=-1;spacingLeft=3;spacingRight=3;rotatable=0;labelPosition=right;points=[];portConstraint=eastwest;" parent="E8JkrkgCadUgXfBp5r76-194" vertex="1">
          <mxGeometry y="26" width="160" height="8" as="geometry" />
        </mxCell>
        <mxCell id="E8JkrkgCadUgXfBp5r76-196" value="JButton" style="swimlane;fontStyle=1;align=center;verticalAlign=top;childLayout=stackLayout;horizontal=1;startSize=26;horizontalStack=0;resizeParent=1;resizeParentMax=0;resizeLast=0;collapsible=1;marginBottom=0;" parent="1" vertex="1">
          <mxGeometry x="2554" y="1342.5" width="160" height="34" as="geometry" />
        </mxCell>
        <mxCell id="E8JkrkgCadUgXfBp5r76-197" value="" style="line;strokeWidth=1;fillColor=none;align=left;verticalAlign=middle;spacingTop=-1;spacingLeft=3;spacingRight=3;rotatable=0;labelPosition=right;points=[];portConstraint=eastwest;" parent="E8JkrkgCadUgXfBp5r76-196" vertex="1">
          <mxGeometry y="26" width="160" height="8" as="geometry" />
        </mxCell>
        <mxCell id="E8JkrkgCadUgXfBp5r76-198" value="" style="endArrow=diamondThin;endFill=1;endSize=24;html=1;exitX=0.5;exitY=0;exitDx=0;exitDy=0;entryX=0.75;entryY=1;entryDx=0;entryDy=0;" parent="1" source="E8JkrkgCadUgXfBp5r76-196" target="E8JkrkgCadUgXfBp5r76-194" edge="1">
          <mxGeometry width="160" relative="1" as="geometry">
            <mxPoint x="2550" y="1346.5" as="sourcePoint" />
            <mxPoint x="2450.0000000000005" y="1036.5" as="targetPoint" />
            <Array as="points" />
          </mxGeometry>
        </mxCell>
        <mxCell id="E8JkrkgCadUgXfBp5r76-199" value="" style="endArrow=diamondThin;endFill=1;endSize=24;html=1;exitX=0.75;exitY=0;exitDx=0;exitDy=0;entryX=0.25;entryY=1;entryDx=0;entryDy=0;" parent="1" source="E8JkrkgCadUgXfBp5r76-192" target="E8JkrkgCadUgXfBp5r76-194" edge="1">
          <mxGeometry width="160" relative="1" as="geometry">
            <mxPoint x="2446" y="1345.4999999999998" as="sourcePoint" />
            <mxPoint x="2530.0000000000005" y="1042.5" as="targetPoint" />
            <Array as="points" />
          </mxGeometry>
        </mxCell>
        <mxCell id="E8JkrkgCadUgXfBp5r76-200" value="JTextArea" style="swimlane;fontStyle=1;align=center;verticalAlign=top;childLayout=stackLayout;horizontal=1;startSize=26;horizontalStack=0;resizeParent=1;resizeParentMax=0;resizeLast=0;collapsible=1;marginBottom=0;" parent="1" vertex="1">
          <mxGeometry x="2150" y="1152.5" width="160" height="34" as="geometry" />
        </mxCell>
        <mxCell id="E8JkrkgCadUgXfBp5r76-201" value="" style="line;strokeWidth=1;fillColor=none;align=left;verticalAlign=middle;spacingTop=-1;spacingLeft=3;spacingRight=3;rotatable=0;labelPosition=right;points=[];portConstraint=eastwest;" parent="E8JkrkgCadUgXfBp5r76-200" vertex="1">
          <mxGeometry y="26" width="160" height="8" as="geometry" />
        </mxCell>
        <mxCell id="E8JkrkgCadUgXfBp5r76-202" value="" style="endArrow=diamondThin;endFill=1;endSize=24;html=1;exitX=0.5;exitY=0;exitDx=0;exitDy=0;entryX=0;entryY=0.5;entryDx=0;entryDy=0;" parent="1" source="E8JkrkgCadUgXfBp5r76-200" target="E8JkrkgCadUgXfBp5r76-194" edge="1">
          <mxGeometry width="160" relative="1" as="geometry">
            <mxPoint x="2250" y="1079.5" as="sourcePoint" />
            <mxPoint x="2330" y="1026.5" as="targetPoint" />
          </mxGeometry>
        </mxCell>
        <mxCell id="E8JkrkgCadUgXfBp5r76-203" value="0...1" style="text;html=1;align=center;verticalAlign=middle;resizable=0;points=[];autosize=1;" parent="1" vertex="1">
          <mxGeometry x="2550" y="960.5" width="40" height="20" as="geometry" />
        </mxCell>
        <mxCell id="E8JkrkgCadUgXfBp5r76-204" value="1" style="text;html=1;align=center;verticalAlign=middle;resizable=0;points=[];autosize=1;" parent="1" vertex="1">
          <mxGeometry x="2220" y="1132.5" width="20" height="20" as="geometry" />
        </mxCell>
        <mxCell id="E8JkrkgCadUgXfBp5r76-205" value="1" style="text;html=1;align=center;verticalAlign=middle;resizable=0;points=[];autosize=1;" parent="1" vertex="1">
          <mxGeometry x="2470" y="990.5" width="20" height="20" as="geometry" />
        </mxCell>
        <mxCell id="E8JkrkgCadUgXfBp5r76-206" value="2" style="text;html=1;align=center;verticalAlign=middle;resizable=0;points=[];autosize=1;" parent="1" vertex="1">
          <mxGeometry x="2315" y="1220.5" width="20" height="20" as="geometry" />
        </mxCell>
        <mxCell id="E8JkrkgCadUgXfBp5r76-207" value="JLabel" style="swimlane;fontStyle=1;align=center;verticalAlign=top;childLayout=stackLayout;horizontal=1;startSize=26;horizontalStack=0;resizeParent=1;resizeParentMax=0;resizeLast=0;collapsible=1;marginBottom=0;" parent="1" vertex="1">
          <mxGeometry x="2390" y="1294.5" width="160" height="34" as="geometry" />
        </mxCell>
        <mxCell id="E8JkrkgCadUgXfBp5r76-208" value="" style="line;strokeWidth=1;fillColor=none;align=left;verticalAlign=middle;spacingTop=-1;spacingLeft=3;spacingRight=3;rotatable=0;labelPosition=right;points=[];portConstraint=eastwest;" parent="E8JkrkgCadUgXfBp5r76-207" vertex="1">
          <mxGeometry y="26" width="160" height="8" as="geometry" />
        </mxCell>
        <mxCell id="E8JkrkgCadUgXfBp5r76-209" value="" style="endArrow=diamondThin;endFill=1;endSize=24;html=1;exitX=0.5;exitY=0;exitDx=0;exitDy=0;entryX=0.5;entryY=1;entryDx=0;entryDy=0;" parent="1" source="E8JkrkgCadUgXfBp5r76-207" target="E8JkrkgCadUgXfBp5r76-194" edge="1">
          <mxGeometry width="160" relative="1" as="geometry">
            <mxPoint x="2360" y="1253.4999999999998" as="sourcePoint" />
            <mxPoint x="2554.0000000000005" y="1055.5000000000002" as="targetPoint" />
            <Array as="points" />
          </mxGeometry>
        </mxCell>
        <mxCell id="E8JkrkgCadUgXfBp5r76-210" value="2" style="text;html=1;align=center;verticalAlign=middle;resizable=0;points=[];autosize=1;" parent="1" vertex="1">
          <mxGeometry x="2450" y="1274.5" width="20" height="20" as="geometry" />
        </mxCell>
        <mxCell id="E8JkrkgCadUgXfBp5r76-211" value="2" style="text;html=1;align=center;verticalAlign=middle;resizable=0;points=[];autosize=1;" parent="1" vertex="1">
          <mxGeometry x="2640" y="1322.5" width="20" height="20" as="geometry" />
        </mxCell>
        <mxCell id="E8JkrkgCadUgXfBp5r76-212" value="1" style="text;html=1;align=center;verticalAlign=middle;resizable=0;points=[];autosize=1;" parent="1" vertex="1">
          <mxGeometry x="2520" y="1014.5" width="20" height="20" as="geometry" />
        </mxCell>
        <mxCell id="E8JkrkgCadUgXfBp5r76-213" value="1" style="text;html=1;align=center;verticalAlign=middle;resizable=0;points=[];autosize=1;" parent="1" vertex="1">
          <mxGeometry x="2570" y="1021.5" width="20" height="20" as="geometry" />
        </mxCell>
        <mxCell id="E8JkrkgCadUgXfBp5r76-214" value="1" style="text;html=1;align=center;verticalAlign=middle;resizable=0;points=[];autosize=1;" parent="1" vertex="1">
          <mxGeometry x="2640" y="1021.5" width="20" height="20" as="geometry" />
        </mxCell>
        <mxCell id="E8JkrkgCadUgXfBp5r76-215" value="1" style="text;html=1;align=center;verticalAlign=middle;resizable=0;points=[];autosize=1;" parent="1" vertex="1">
          <mxGeometry x="2650" y="890" width="20" height="20" as="geometry" />
        </mxCell>
        <mxCell id="E8JkrkgCadUgXfBp5r76-216" value="0...1" style="text;html=1;align=center;verticalAlign=middle;resizable=0;points=[];autosize=1;" parent="1" vertex="1">
          <mxGeometry x="2900" y="964" width="40" height="20" as="geometry" />
        </mxCell>
        <mxCell id="E8JkrkgCadUgXfBp5r76-217" value="1" style="text;html=1;align=center;verticalAlign=middle;resizable=0;points=[];autosize=1;" parent="1" vertex="1">
          <mxGeometry x="2810" y="890" width="20" height="20" as="geometry" />
        </mxCell>
        <mxCell id="E8JkrkgCadUgXfBp5r76-222" value="admin" style="shape=umlFrame;whiteSpace=wrap;html=1;fillColor=none;" parent="1" vertex="1">
          <mxGeometry x="2040" y="720" width="1381" height="693" as="geometry" />
        </mxCell>
        <mxCell id="E8JkrkgCadUgXfBp5r76-226" value="Utils" style="shape=umlFrame;whiteSpace=wrap;html=1;fillColor=none;" parent="1" vertex="1">
          <mxGeometry x="510" y="1440" width="660" height="340" as="geometry" />
        </mxCell>
        <mxCell id="E8JkrkgCadUgXfBp5r76-227" value="json" style="shape=umlFrame;whiteSpace=wrap;html=1;fillColor=none;" parent="1" vertex="1">
          <mxGeometry x="522" y="1480" width="278" height="280" as="geometry" />
        </mxCell>
        <mxCell id="E8JkrkgCadUgXfBp5r76-228" value="bdd" style="shape=umlFrame;whiteSpace=wrap;html=1;fillColor=none;" parent="1" vertex="1">
          <mxGeometry x="840" y="1480" width="320" height="280" as="geometry" />
        </mxCell>
        <mxCell id="E8JkrkgCadUgXfBp5r76-232" value="enchaîne&amp;nbsp;" style="text;html=1;align=center;verticalAlign=middle;resizable=0;points=[];autosize=1;" parent="1" vertex="1">
          <mxGeometry x="1045" y="940" width="70" height="20" as="geometry" />
        </mxCell>
      </root>
    </mxGraphModel>
  </diagram>
</mxfile>
